<?xml version="1.0" encoding="UTF-8" standalone="no"?><!DOCTYPE svg PUBLIC "-//W3C//DTD SVG 1.1//EN" "http://www.w3.org/Graphics/SVG/1.1/DTD/svg11.dtd"><svg width="100%" height="100%" viewBox="0 0 117 117" version="1.1" xmlns="http://www.w3.org/2000/svg" xmlns:xlink="http://www.w3.org/1999/xlink" xml:space="preserve" xmlns:serif="http://www.serif.com/" style="fill-rule:evenodd;clip-rule:evenodd;stroke-linejoin:round;stroke-miterlimit:2;"><g><path id="XMLID_176_" d="M37.626,89.067c0.927,-0.413 1.866,-0.792 2.814,-1.148c1.07,-0.402 2.149,-0.78 3.242,-1.11c1.361,-0.41 2.733,-0.781 4.124,-1.076c1.875,-0.398 3.772,-0.693 5.684,-0.879c-1.072,3.371 -2.257,6.723 -3.541,10.053c0.055,0.645 0.085,1.294 0.102,1.944c2.585,-0.51 5.256,-0.783 7.991,-0.783c2.735,0 5.406,0.273 7.991,0.783c0.017,-0.651 0.046,-1.3 0.102,-1.944c-1.284,-3.33 -2.469,-6.682 -3.541,-10.053c1.912,0.186 3.809,0.48 5.684,0.879c1.39,0.295 2.763,0.666 4.124,1.076c1.094,0.329 2.172,0.708 3.242,1.11c0.948,0.356 1.888,0.736 2.815,1.148c6.577,2.929 12.573,7.273 17.49,12.911c12.325,-10.644 20.137,-26.372 20.137,-43.935c-0,-32.056 -25.987,-58.043 -58.043,-58.043c-32.056,-0 -58.043,25.987 -58.043,58.043c-0,17.563 7.811,33.292 20.137,43.935c4.916,-5.638 10.912,-9.983 17.489,-12.911Z" style="fill:#a0dbe8;fill-rule:nonzero;"/><path id="XMLID_175_" d="M41.452,99.568c2.725,-1.205 5.602,-2.126 8.599,-2.717c-0.017,-0.651 -0.046,-1.3 -0.102,-1.944c1.284,-3.33 2.469,-6.682 3.541,-10.053c-1.912,0.186 -3.809,0.48 -5.684,0.879c-1.39,0.295 -2.763,0.666 -4.124,1.076c-1.093,0.329 -2.172,0.707 -3.242,1.11l4.231,1.025l-3.219,10.624Z" style="fill:#525353;fill-rule:nonzero;"/><path id="XMLID_174_" d="M31.477,105.826c0.106,-1.082 0.171,-2.173 0.171,-3.275c0,-0.663 0.538,-1.201 1.201,-1.201l1.055,-0l3.722,-12.282c-6.577,2.929 -12.573,7.273 -17.491,12.911c2.711,2.341 5.638,4.434 8.752,6.247c0.829,-0.837 1.693,-1.638 2.59,-2.4Z" style="fill:#525353;fill-rule:nonzero;"/><path id="XMLID_173_" d="M78.458,89.067l3.722,12.282l1.054,-0c0.664,-0 1.201,0.538 1.201,1.201c0,1.103 0.065,2.194 0.171,3.275c0.898,0.762 1.761,1.564 2.59,2.399c3.114,-1.813 6.041,-3.906 8.752,-6.247c-4.917,-5.637 -10.913,-9.981 -17.49,-12.91Z" style="fill:#525353;fill-rule:nonzero;"/><path id="XMLID_172_" d="M71.413,88.944l4.23,-1.025c-1.07,-0.402 -2.149,-0.78 -3.242,-1.11c-1.361,-0.41 -2.733,-0.781 -4.124,-1.076c-1.875,-0.398 -3.772,-0.693 -5.684,-0.879c1.072,3.371 2.257,6.723 3.541,10.053c-0.055,0.645 -0.085,1.294 -0.102,1.944c2.998,0.591 5.875,1.512 8.6,2.717l-3.219,-10.624Z" style="fill:#525353;fill-rule:nonzero;"/><path id="XMLID_171_" d="M49.863,101.349l16.358,0c-0.168,-1.507 -0.228,-3.009 -0.188,-4.498c-2.585,-0.51 -5.256,-0.783 -7.991,-0.783c-2.735,0 -5.405,0.273 -7.991,0.783c0.039,1.489 -0.021,2.991 -0.188,4.498Z" style="fill-rule:nonzero;"/><path id="XMLID_170_" d="M28.887,108.225c0.675,0.393 1.355,0.776 2.046,1.142c0.242,-1.163 0.427,-2.344 0.544,-3.541c-0.897,0.762 -1.761,1.563 -2.59,2.399Z" style="fill-rule:nonzero;"/><path id="XMLID_169_" d="M40.912,101.349l8.951,0c0.168,-1.507 0.228,-3.009 0.188,-4.498c-2.997,0.591 -5.875,1.512 -8.599,2.717l-0.54,1.781Z" style="fill-rule:nonzero;"/><path id="XMLID_168_" d="M84.606,105.826c0.117,1.197 0.302,2.378 0.544,3.541c0.691,-0.366 1.372,-0.749 2.046,-1.142c-0.829,-0.836 -1.692,-1.637 -2.59,-2.399Z" style="fill-rule:nonzero;"/><path id="XMLID_167_" d="M75.172,101.349l-0.54,-1.78c-2.725,-1.205 -5.602,-2.126 -8.6,-2.717c-0.039,1.489 0.021,2.991 0.188,4.498l8.952,-0.001Z" style="fill-rule:nonzero;"/><path id="XMLID_166_" d="M40.912,101.349l0.54,-1.781l3.22,-10.625l-4.231,-1.025c-0.948,0.356 -1.888,0.736 -2.814,1.148l-3.722,12.282l3.996,0l3.011,0.001Z" style="fill:#aa9678;fill-rule:nonzero;"/><path id="XMLID_165_" d="M74.633,99.569l0.54,1.78l7.008,0l-3.722,-12.282c-0.927,-0.413 -1.867,-0.792 -2.815,-1.148l-4.23,1.025l3.219,10.625Z" style="fill:#aa9678;fill-rule:nonzero;"/><path id="XMLID_164_" d="M34.026,103.83c0.036,-0.026 0.073,-0.052 0.11,-0.078l-0.105,0c-0.001,0.026 -0.004,0.051 -0.005,0.078Z" style="fill:#c0b098;fill-rule:nonzero;"/><path id="XMLID_163_" d="M58.042,103.751l-23.905,0c-0.037,0.026 -0.074,0.052 -0.11,0.078c-0.08,2.268 -0.384,4.492 -0.877,6.656c7.544,3.587 15.982,5.601 24.892,5.601l0,-12.335Z" style="fill:#c0b098;fill-rule:nonzero;"/><path id="XMLID_162_" d="M82.053,103.751l-0.105,0c0.037,0.026 0.074,0.052 0.11,0.078c-0.002,-0.026 -0.005,-0.051 -0.005,-0.078Z" style="fill:#aa9678;fill-rule:nonzero;"/><path id="XMLID_161_" d="M81.947,103.751l-23.904,0l-0,12.335c8.91,0 17.348,-2.013 24.892,-5.601c-0.493,-2.164 -0.796,-4.387 -0.877,-6.656c-0.037,-0.026 -0.074,-0.051 -0.111,-0.078Z" style="fill:#aa9678;fill-rule:nonzero;"/><path id="XMLID_160_" d="M58.042,102.55l0,1.201l0,-1.201Z" style="fill:#786453;"/><path id="XMLID_159_" d="M84.606,105.826c-0.106,-1.082 -0.171,-2.173 -0.171,-3.275c-0,-0.663 -0.538,-1.201 -1.201,-1.201l-50.385,-0c-0.664,-0 -1.201,0.538 -1.201,1.201c-0,1.103 -0.065,2.194 -0.171,3.275c-0.117,1.197 -0.302,2.378 -0.544,3.541c0.731,0.387 1.468,0.763 2.216,1.119c0.493,-2.164 0.796,-4.387 0.877,-6.656c0.001,-0.026 0.004,-0.052 0.005,-0.078l48.019,-0c0.001,0.026 0.004,0.052 0.005,0.078c0.08,2.268 0.384,4.492 0.877,6.656c0.749,-0.356 1.486,-0.732 2.216,-1.119c-0.24,-1.164 -0.425,-2.344 -0.542,-3.541Z" style="fill:#8b7460;fill-rule:nonzero;"/><g id="XMLID_195_"><path id="XMLID_158_" d="M77.576,49.223c0.002,0.005 0.003,0.01 0.005,0.014c0.726,2.086 1.55,4.199 1.973,6.373c-0.015,0.151 -0.03,0.307 -0.045,0.468c-0.038,0.234 -0.077,0.441 -0.116,0.627c0.061,-0.286 0.12,-0.627 0.179,-1.024c-0.421,-2.204 -1.26,-4.344 -1.996,-6.458c-0.003,0.005 -0.005,0.01 -0.008,0.016c0.003,-0.005 0.005,-0.011 0.008,-0.016Z" style="fill:none;fill-rule:nonzero;"/><path id="XMLID_157_" d="M94.479,62.345c-0.032,0.019 -0.064,0.035 -0.097,0.052c0.033,-0.017 0.065,-0.034 0.097,-0.052Z" style="fill:none;fill-rule:nonzero;"/><path id="XMLID_156_" d="M94.853,62.061c-0.042,0.04 -0.083,0.083 -0.127,0.118c0.044,-0.035 0.085,-0.078 0.127,-0.118Z" style="fill:none;fill-rule:nonzero;"/><path id="XMLID_155_" d="M75.83,47.696c-1.334,-1.126 -2.737,-2.152 -4.209,-3.059c1.472,0.906 2.874,1.933 4.209,3.059Z" style="fill:none;fill-rule:nonzero;"/><path id="XMLID_154_" d="M89.291,61.606c0.01,0.012 0.02,0.025 0.031,0.037c-0.01,-0.012 -0.02,-0.024 -0.031,-0.037Z" style="fill:none;fill-rule:nonzero;"/><path id="XMLID_153_" d="M91.75,64.672c0.039,0.05 0.079,0.099 0.118,0.149c-0.039,-0.05 -0.079,-0.099 -0.118,-0.149Z" style="fill:none;fill-rule:nonzero;"/><path id="XMLID_152_" d="M79.375,56.787c-0.039,0.175 -0.078,0.332 -0.118,0.45c0.04,-0.119 0.079,-0.276 0.118,-0.45Z" style="fill:none;fill-rule:nonzero;"/><path id="XMLID_151_" d="M73.685,77.96c-0.888,1.48 -1.457,2.883 -1.786,4.199c0.329,-1.316 0.898,-2.719 1.786,-4.199c0.292,-0.487 0.578,-0.965 0.856,-1.435c-0.276,0.466 -0.559,0.939 -0.849,1.422c-0.002,0.005 -0.004,0.009 -0.007,0.013Z" style="fill:none;fill-rule:nonzero;"/><path id="XMLID_150_" d="M77.582,49.213c0.052,-0.104 0.105,-0.204 0.157,-0.308l-0.014,0.012c-0.048,0.096 -0.096,0.197 -0.143,0.296c0.349,0.302 0.696,0.61 1.037,0.922c-0.341,-0.312 -0.687,-0.62 -1.037,-0.922Z" style="fill:none;fill-rule:nonzero;"/><path id="XMLID_149_" d="M66.061,56.832c0.001,0.004 0.003,0.008 0.004,0.012c-0.001,-0.004 -0.003,-0.008 -0.004,-0.012Z" style="fill:none;fill-rule:nonzero;"/><path id="XMLID_147_" d="M69.557,43.456c-0.08,-0.045 -0.143,-0.079 -0.179,-0.097c0.036,0.018 0.099,0.052 0.179,0.097Z" style="fill:none;fill-rule:nonzero;"/><path id="XMLID_146_" d="M69.852,43.621c-0.094,-0.053 -0.173,-0.097 -0.246,-0.138c0.072,0.041 0.151,0.085 0.246,0.138Z" style="fill:none;fill-rule:nonzero;"/><path id="XMLID_145_" d="M71.756,48.298c0.001,0.137 -0.002,0.273 -0.001,0.41c-0.001,-0.137 0.003,-0.273 0.001,-0.41Z" style="fill:none;fill-rule:nonzero;"/><path id="XMLID_144_" d="M65.865,56.33c0.001,0.003 0.003,0.006 0.005,0.01c-0.002,-0.004 -0.003,-0.007 -0.005,-0.01Z" style="fill:none;fill-rule:nonzero;"/><path id="XMLID_143_" d="M94.119,67.737c0.072,0.095 0.145,0.189 0.217,0.283c-0.072,-0.095 -0.145,-0.189 -0.217,-0.283Z" style="fill:none;fill-rule:nonzero;"/><path id="XMLID_142_" d="M71.749,50.127c-0.012,0.609 -0.033,1.218 -0.064,1.827c0.031,-0.609 0.052,-1.218 0.064,-1.827Z" style="fill:none;fill-rule:nonzero;"/><path id="XMLID_141_" d="M66.207,57.358c0.001,0.005 0.002,0.009 0.003,0.014c-0,-0.005 -0.002,-0.009 -0.003,-0.014Z" style="fill:none;fill-rule:nonzero;"/><path id="XMLID_140_" d="M71.514,44.568c-0.212,-0.122 -0.768,-0.44 -1.269,-0.725c0.494,0.281 1.045,0.597 1.269,0.725Z" style="fill:none;fill-rule:nonzero;"/><path id="XMLID_139_" d="M70.213,43.826c-0.126,-0.071 -0.245,-0.139 -0.355,-0.201c0.109,0.061 0.23,0.129 0.355,0.201Z" style="fill:none;fill-rule:nonzero;"/><path id="XMLID_138_" d="M71.607,44.621c-0.004,-0.002 -0.028,-0.016 -0.038,-0.022c0.015,0.01 0.033,0.02 0.038,0.022Z" style="fill:none;fill-rule:nonzero;"/><path id="XMLID_137_" d="M96.059,58.722c0.001,-0.046 0.008,-0.089 0.008,-0.135c0,-0.006 0.001,-0.011 0.001,-0.017c0,-0.005 -0.001,-0.01 -0.001,-0.016c0,-0.043 -0.007,-0.083 -0.008,-0.126c0.001,0.048 0.008,0.093 0.008,0.142c0.001,0.052 -0.007,0.101 -0.008,0.152Z" style="fill:none;fill-rule:nonzero;"/><path id="XMLID_136_" d="M86.556,58.362c0.056,0.064 0.11,0.128 0.166,0.192c-0.001,-0.001 -0.002,-0.002 -0.003,-0.003l0.014,0c-0.024,-0.028 -0.087,-0.095 -0.177,-0.189Z" style="fill:none;fill-rule:nonzero;"/><path id="XMLID_135_" d="M78.619,50.135c0.773,0.707 1.528,1.433 2.274,2.168c-0.745,-0.736 -1.501,-1.461 -2.274,-2.168Z" style="fill:none;fill-rule:nonzero;"/><path id="XMLID_134_" d="M93.732,54.567c0.143,0 0.28,0.03 0.416,0.072c-0.135,-0.042 -0.273,-0.072 -0.416,-0.072Z" style="fill:none;fill-rule:nonzero;"/><path id="XMLID_133_" d="M91.5,57.451c-0.012,0.069 -0.027,0.135 -0.037,0.206c0.01,-0.071 0.025,-0.137 0.037,-0.206Z" style="fill:none;fill-rule:nonzero;"/><path id="XMLID_132_" d="M94.272,54.685c0.095,0.039 0.188,0.09 0.279,0.148c-0.091,-0.059 -0.184,-0.108 -0.279,-0.148Z" style="fill:none;fill-rule:nonzero;"/><path id="XMLID_131_" d="M95.161,55.424c0.031,0.042 0.061,0.085 0.091,0.129c-0.03,-0.044 -0.06,-0.087 -0.091,-0.129Z" style="fill:none;fill-rule:nonzero;"/><path id="XMLID_130_" d="M96.016,57.738c-0.001,-0.009 -0.004,-0.018 -0.005,-0.027c-0.002,-0.016 -0.006,-0.029 -0.008,-0.045c0.003,0.026 0.01,0.049 0.014,0.076c-0.001,-0.002 -0.001,-0.003 -0.001,-0.004Z" style="fill:none;fill-rule:nonzero;"/><path id="XMLID_129_" d="M96.011,59.432c0.002,-0.011 0.005,-0.021 0.006,-0.033l0,-0.003c-0.004,0.03 -0.012,0.057 -0.016,0.087c0.003,-0.017 0.008,-0.033 0.01,-0.051Z" style="fill:none;fill-rule:nonzero;"/><path id="XMLID_128_" d="M92.212,55.554c0.03,-0.045 0.061,-0.088 0.092,-0.13c-0.031,0.042 -0.062,0.085 -0.092,0.13Z" style="fill:none;fill-rule:nonzero;"/><path id="XMLID_127_" d="M93.316,54.639c0.135,-0.042 0.273,-0.072 0.416,-0.072c-0.143,0 -0.281,0.03 -0.416,0.072Z" style="fill:none;fill-rule:nonzero;"/><path id="XMLID_126_" d="M83.007,54.458c-0.357,-0.375 -0.721,-0.744 -1.083,-1.113c0.363,0.369 0.725,0.738 1.083,1.113Z" style="fill:none;fill-rule:nonzero;"/><path id="XMLID_125_" d="M93.732,41.876l0,-0.016l0,5.397l-2.067,9.467c-0.007,0.023 -0.01,0.05 -0.016,0.073c0.005,-0.019 0.011,-0.036 0.017,-0.054l2.067,-9.467l0,-5.397l-0.001,-0.003Z" style="fill:none;fill-rule:nonzero;"/><path id="XMLID_124_" d="M84.94,56.543c-0.188,-0.208 -0.378,-0.416 -0.567,-0.623c0.19,0.207 0.378,0.415 0.567,0.623Z" style="fill:none;fill-rule:nonzero;"/><path id="XMLID_123_" d="M95.799,56.742c0.023,0.075 0.051,0.145 0.071,0.223c0,-0.001 0,-0.002 -0.001,-0.003c-0.02,-0.077 -0.047,-0.145 -0.07,-0.22Z" style="fill:none;fill-rule:nonzero;"/><path id="XMLID_122_" d="M91.396,58.551l0.002,0c0,-0.038 0.006,-0.073 0.006,-0.11c-0.001,0.038 -0.008,0.072 -0.008,0.11Z" style="fill:none;fill-rule:nonzero;"/><path id="XMLID_121_" d="M92.913,54.834c0.091,-0.058 0.183,-0.109 0.279,-0.148c-0.095,0.039 -0.188,0.088 -0.279,0.148Z" style="fill:none;fill-rule:nonzero;"/><path id="XMLID_120_" d="M92.491,55.191c0.096,-0.104 0.195,-0.2 0.3,-0.279c-0.105,0.08 -0.205,0.174 -0.3,0.279Z" style="fill:none;fill-rule:nonzero;"/><path id="XMLID_119_" d="M95.87,60.174c0,-0.001 0,-0.002 0.001,-0.003c-0.052,0.205 -0.115,0.401 -0.186,0.587c0.073,-0.188 0.139,-0.384 0.193,-0.592l-0.008,0.008Z" style="fill:none;fill-rule:nonzero;"/><path id="XMLID_118_" d="M25.133,56.776c0.085,-0.135 0.174,-0.267 0.26,-0.401c-0.086,0.134 -0.175,0.266 -0.26,0.401Z" style="fill:none;fill-rule:nonzero;"/><path id="XMLID_117_" d="M94.673,54.912c0.105,0.079 0.204,0.175 0.3,0.279c-0.095,-0.105 -0.195,-0.199 -0.3,-0.279Z" style="fill:none;fill-rule:nonzero;"/><path id="XMLID_116_" d="M26.779,54.358c0.042,-0.057 0.081,-0.117 0.124,-0.174c-0.042,0.057 -0.082,0.117 -0.124,0.174Z" style="fill:none;fill-rule:nonzero;"/><path id="XMLID_115_" d="M66.342,58.523l0.002,-0.001l0,-0.009l0.01,0l-0.014,-0.031c0,0.014 0.002,0.027 0.002,0.041Z" style="fill:none;fill-rule:nonzero;"/><path id="XMLID_114_" d="M22.611,61.401c-0.1,0.212 -0.199,0.424 -0.295,0.638c0.096,-0.214 0.195,-0.426 0.295,-0.638Z" style="fill:none;fill-rule:nonzero;"/><path id="XMLID_113_" d="M21.341,64.366c-0.013,0.035 -0.028,0.069 -0.041,0.104c0.013,-0.035 0.028,-0.069 0.041,-0.104Z" style="fill:none;fill-rule:nonzero;"/><path id="XMLID_112_" d="M95.17,43.253l-0.005,-0.006l0.005,0.006Z" style="fill:none;fill-rule:nonzero;"/><path id="XMLID_111_" d="M32.809,47.848l-0.004,0.004l0.004,-0.004Z" style="fill:none;fill-rule:nonzero;"/><path id="XMLID_110_" d="M30.538,49.96c0.115,-0.115 0.232,-0.227 0.348,-0.341c-0.116,0.114 -0.234,0.226 -0.348,0.341Z" style="fill:none;fill-rule:nonzero;"/><path id="XMLID_109_" d="M28.491,52.197c0.117,-0.138 0.233,-0.277 0.352,-0.413c-0.119,0.136 -0.235,0.274 -0.352,0.413Z" style="fill:none;fill-rule:nonzero;"/><path id="XMLID_108_" d="M95.8,56.743l-2.068,-9.467l2.068,9.467Z" style="fill:none;fill-rule:nonzero;"/><path id="XMLID_107_" d="M59.754,63.913c-0.039,-0.008 -0.076,-0.02 -0.115,-0.029c0.039,0.009 0.076,0.021 0.115,0.029Z" style="fill:none;fill-rule:nonzero;"/><path id="XMLID_106_" d="M60.307,64c-0.044,-0.005 -0.086,-0.014 -0.129,-0.02c0.043,0.005 0.085,0.015 0.129,0.02Z" style="fill:none;fill-rule:nonzero;"/><path id="XMLID_105_" d="M23.884,58.899c-0.131,0.237 -0.254,0.478 -0.38,0.717c0.126,-0.239 0.249,-0.48 0.38,-0.717Z" style="fill:none;fill-rule:nonzero;"/><path id="XMLID_104_" d="M58.209,63.333c-0.002,-0.001 -0.005,-0.003 -0.007,-0.004c0.003,0.001 0.005,0.003 0.007,0.004Z" style="fill:none;fill-rule:nonzero;"/><path id="XMLID_103_" d="M59.217,63.771c-0.025,-0.008 -0.05,-0.019 -0.075,-0.028c0.025,0.009 0.049,0.02 0.075,0.028Z" style="fill:none;fill-rule:nonzero;"/><path id="XMLID_102_" d="M58.7,63.577c-0.013,-0.006 -0.025,-0.013 -0.038,-0.018c0.013,0.006 0.026,0.012 0.038,0.018Z" style="fill:none;fill-rule:nonzero;"/><path id="XMLID_101_" d="M55.813,60.625c0.002,0.004 0.003,0.009 0.005,0.013c-0.002,-0.004 -0.003,-0.009 -0.005,-0.013Z" style="fill:none;fill-rule:nonzero;"/><path id="XMLID_100_" d="M55.555,57.314c-0.009,0.04 -0.022,0.079 -0.031,0.12c0.009,-0.04 0.022,-0.079 0.031,-0.12Z" style="fill:none;fill-rule:nonzero;"/><path id="XMLID_99_" d="M56.12,55.865c-0.003,0.006 -0.007,0.011 -0.01,0.016c0.004,-0.005 0.007,-0.01 0.01,-0.016Z" style="fill:none;fill-rule:nonzero;"/><path id="XMLID_98_" d="M57.934,53.955c-0.001,0.001 -0.002,0.001 -0.003,0.001c0.001,0 0.002,0 0.003,-0.001Z" style="fill:none;fill-rule:nonzero;"/><path id="XMLID_97_" d="M55.698,56.81c-0.01,0.029 -0.022,0.056 -0.031,0.085c0.009,-0.029 0.022,-0.057 0.031,-0.085Z" style="fill:none;fill-rule:nonzero;"/><path id="XMLID_96_" d="M55.887,56.328c-0.007,0.016 -0.016,0.032 -0.023,0.048c0.007,-0.016 0.016,-0.032 0.023,-0.048Z" style="fill:none;fill-rule:nonzero;"/><path id="XMLID_95_" d="M61.95,53.199c-0.008,-0.002 -0.017,-0.002 -0.025,-0.004c0.008,0.001 0.016,0.002 0.025,0.004Z" style="fill:none;fill-rule:nonzero;"/><path id="XMLID_94_" d="M62.944,53.5c-0.005,-0.002 -0.01,-0.004 -0.016,-0.006c0.005,0.002 0.011,0.004 0.016,0.006Z" style="fill:none;fill-rule:nonzero;"/><path id="XMLID_93_" d="M58.849,53.484c-0.008,0.003 -0.017,0.006 -0.025,0.009c0.008,-0.003 0.017,-0.005 0.025,-0.009Z" style="fill:none;fill-rule:nonzero;"/><path id="XMLID_92_" d="M59.845,53.192c-0.012,0.002 -0.024,0.003 -0.036,0.005c0.012,-0.002 0.024,-0.003 0.036,-0.005Z" style="fill:none;fill-rule:nonzero;"/><path id="XMLID_91_" d="M66.302,57.911c0,0.003 0.001,0.005 0.001,0.008c-0,-0.003 -0.001,-0.006 -0.001,-0.008Z" style="fill:none;fill-rule:nonzero;"/><path id="XMLID_90_" d="M60.906,40.962l0,-0.237l0,0.237Z" style="fill:none;fill-rule:nonzero;"/><path id="XMLID_89_" d="M60.906,40.582l0,-0.143l0,0.143Z" style="fill:none;fill-rule:nonzero;"/><path id="XMLID_88_" d="M60.906,40.361l0,-0.031l0,0.031Z" style="fill:none;fill-rule:nonzero;"/><path id="XMLID_87_" d="M60.906,41.693l0,-0.559l0,0.559Z" style="fill:none;fill-rule:nonzero;"/><path id="XMLID_86_" d="M95.334,61.471c-0.059,0.095 -0.122,0.18 -0.187,0.264c0.065,-0.084 0.128,-0.169 0.187,-0.264Z" style="fill:none;fill-rule:nonzero;"/><path id="XMLID_85_" d="M55.456,57.86c-0.005,0.044 -0.015,0.086 -0.02,0.13c0.005,-0.044 0.015,-0.086 0.02,-0.13Z" style="fill:none;fill-rule:nonzero;"/><path id="XMLID_84_" d="M55.511,59.617c0.001,0.007 0.002,0.014 0.003,0.022c-0.001,-0.007 -0.002,-0.015 -0.003,-0.022Z" style="fill:none;fill-rule:nonzero;"/><path id="XMLID_83_" d="M95.624,60.901c-0.056,0.133 -0.118,0.259 -0.183,0.38c0.066,-0.12 0.126,-0.246 0.183,-0.38Z" style="fill:none;fill-rule:nonzero;"/><path id="XMLID_82_" d="M74.661,93.066c-0.175,-0.201 -0.356,-0.417 -0.543,-0.662c0.187,0.246 0.368,0.461 0.543,0.662Z" style="fill:#525353;fill-rule:nonzero;"/><path id="XMLID_81_" d="M75.996,94.392c0,0 0.004,0.014 0.012,0.038c-0.008,-0.024 -0.012,-0.038 -0.012,-0.038c0,0 -0.588,-0.466 -1.335,-1.326c0.746,0.86 1.335,1.326 1.335,1.326Z" style="fill:#aa9678;fill-rule:nonzero;"/><path id="XMLID_80_" d="M93.715,41.877c0.001,0 0.001,0.001 0.001,0.001c0,0.001 -0,0.001 -0.001,0.001c-0,0 -0.001,-0 -0.001,-0.001c0,-0 0,-0.001 0.001,-0.001Z" style="fill:#fff;"/><path id="XMLID_79_" d="M96.067,58.587c0,-0.006 0.001,-0.011 0.001,-0.017c-0,0.006 -0.001,0.012 -0.001,0.017Z" style="fill:#fff;fill-rule:nonzero;"/><path id="XMLID_78_" d="M96.688,45.126c-0.01,-0.013 -0.02,-0.025 -0.029,-0.038l0.001,0c-0.482,-0.67 -0.98,-1.281 -1.49,-1.836c-0.001,-0.002 -0.003,-0.004 -0.005,-0.005c0.001,0.002 0.003,0.004 0.005,0.005c-0.005,-0.005 -0.009,-0.011 -0.013,-0.016c-0.232,-0.251 -0.466,-0.492 -0.703,-0.719c-0.09,-0.086 -0.182,-0.161 -0.272,-0.243c-0.149,-0.135 -0.298,-0.275 -0.449,-0.4l0,5.4l2.067,9.467c0.022,0.074 0.05,0.142 0.069,0.219l1.432,1.605l0.014,-0.016l1.499,0c0.002,-0.139 0.01,-0.276 0.01,-0.415l-0,-0.002c-0,-4.465 -0.734,-8.756 -2.063,-12.775c-0.025,-0.076 -0.047,-0.154 -0.073,-0.231Z" style="fill:#bbbcbd;fill-rule:nonzero;"/><path id="XMLID_77_" d="M96.068,58.57c0,-0.005 -0.001,-0.01 -0.001,-0.016c0,0.006 0.001,0.011 0.001,0.016Z" style="fill:#bbbcbd;fill-rule:nonzero;"/><path id="XMLID_76_" d="M96.003,57.666c0.002,0.015 0.006,0.029 0.008,0.045c0.001,0.009 0.004,0.018 0.005,0.027l0,0.004c0.027,0.222 0.038,0.453 0.043,0.687c0.001,0.043 0.008,0.083 0.008,0.126c0,0.005 0.001,0.01 0.001,0.016c0,0.006 -0.001,0.011 -0.001,0.017c0,0.046 -0.007,0.089 -0.008,0.135c-0.005,0.229 -0.015,0.456 -0.042,0.674l0,0.003c-0.001,0.011 -0.004,0.021 -0.006,0.033c-0.002,0.018 -0.007,0.034 -0.01,0.051c-0.032,0.237 -0.074,0.468 -0.13,0.687c0,0.001 0,0.002 -0.001,0.003l0.008,-0.009c0.001,-0.004 0.002,-0.007 0.003,-0.011l1.42,-1.588l-1.432,-1.605c0,0.001 0,0.002 0.001,0.003c0.057,0.224 0.1,0.459 0.133,0.702Z" style="fill:#676a6a;fill-rule:nonzero;"/><path id="XMLID_219_" d="M96.001,59.484c0.004,-0.03 0.012,-0.057 0.016,-0.087c0.027,-0.218 0.037,-0.445 0.042,-0.674c0.001,-0.052 0.009,-0.1 0.009,-0.152c0,-0.049 -0.007,-0.094 -0.008,-0.142c-0.005,-0.234 -0.016,-0.465 -0.043,-0.687c-0.003,-0.026 -0.01,-0.05 -0.014,-0.076c-0.033,-0.242 -0.076,-0.477 -0.133,-0.701c-0.02,-0.078 -0.048,-0.147 -0.071,-0.223c-0.137,-0.454 -0.325,-0.856 -0.547,-1.189c-0.03,-0.044 -0.06,-0.088 -0.091,-0.129c-0.061,-0.082 -0.122,-0.162 -0.187,-0.233c-0.096,-0.104 -0.195,-0.2 -0.3,-0.279c-0.04,-0.03 -0.082,-0.051 -0.123,-0.078c-0.09,-0.058 -0.183,-0.109 -0.279,-0.148c-0.041,-0.017 -0.082,-0.033 -0.124,-0.046c-0.135,-0.042 -0.273,-0.072 -0.416,-0.072c-0.143,0 -0.28,0.03 -0.416,0.072c-0.042,0.013 -0.083,0.029 -0.124,0.046c-0.096,0.039 -0.188,0.09 -0.279,0.148c-0.04,0.027 -0.083,0.047 -0.122,0.078c-0.105,0.079 -0.204,0.175 -0.3,0.279c-0.065,0.071 -0.126,0.151 -0.187,0.233c-0.031,0.042 -0.062,0.086 -0.092,0.13c-0.222,0.334 -0.41,0.735 -0.547,1.189c-0.006,0.018 -0.012,0.036 -0.017,0.054c-0.06,0.208 -0.108,0.428 -0.148,0.654c-0.012,0.069 -0.028,0.135 -0.037,0.206c-0.036,0.252 -0.055,0.515 -0.059,0.784c-0.001,0.037 -0.006,0.073 -0.006,0.11l0.009,0c0,2.211 1.046,4.003 2.336,4.003c0.222,0 0.436,-0.058 0.639,-0.158c0.033,-0.016 0.065,-0.033 0.097,-0.052c0.085,-0.048 0.167,-0.102 0.247,-0.165c0.044,-0.035 0.085,-0.078 0.127,-0.118c0.103,-0.096 0.201,-0.205 0.294,-0.326c0.064,-0.084 0.128,-0.169 0.187,-0.264c0.038,-0.06 0.072,-0.126 0.107,-0.19c0.065,-0.12 0.127,-0.246 0.183,-0.38c0.02,-0.048 0.042,-0.094 0.061,-0.144c0.071,-0.186 0.134,-0.381 0.186,-0.587c0.056,-0.218 0.098,-0.449 0.13,-0.686Zm-2.185,-1.447c-0.484,0 -0.876,-0.672 -0.876,-1.501c-0,-0.829 0.392,-1.501 0.876,-1.501c0.484,0 0.876,0.672 0.876,1.501c-0,0.829 -0.392,1.501 -0.876,1.501Z" style="fill-rule:nonzero;"/><ellipse id="XMLID_73_" cx="93.816" cy="56.536" rx="0.876" ry="1.501" style="fill:#fff;"/><path id="XMLID_72_" d="M91.665,56.743c0.137,-0.455 0.325,-0.856 0.547,-1.189c0.03,-0.045 0.061,-0.088 0.092,-0.13c0.06,-0.082 0.122,-0.161 0.187,-0.233c0.096,-0.105 0.196,-0.199 0.3,-0.279c0.04,-0.03 0.082,-0.051 0.122,-0.078c0.09,-0.059 0.183,-0.109 0.279,-0.148c0.041,-0.017 0.082,-0.033 0.124,-0.046c0.135,-0.042 0.273,-0.072 0.416,-0.072c0.143,0 0.281,0.029 0.416,0.072c0.042,0.013 0.083,0.029 0.124,0.046c0.095,0.039 0.188,0.089 0.279,0.148c0.041,0.027 0.083,0.048 0.123,0.078c0.105,0.08 0.204,0.174 0.3,0.279c0.065,0.071 0.127,0.151 0.187,0.233c0.031,0.042 0.061,0.085 0.091,0.129c0.222,0.334 0.409,0.735 0.547,1.189l0,0.001l-2.067,-9.467l-2.067,9.467Z" style="fill:#909393;fill-rule:nonzero;"/><path id="XMLID_214_" d="M66.34,58.482c-0.003,-0.19 -0.015,-0.378 -0.037,-0.564c0,-0.003 -0.001,-0.005 -0.001,-0.008c-0.022,-0.182 -0.052,-0.362 -0.091,-0.539c-0.001,-0.005 -0.002,-0.009 -0.003,-0.014c-0.039,-0.175 -0.086,-0.346 -0.142,-0.514c-0.001,-0.004 -0.003,-0.008 -0.004,-0.012c-0.056,-0.168 -0.12,-0.333 -0.191,-0.493c-0.001,-0.003 -0.003,-0.007 -0.005,-0.01c-0.072,-0.161 -0.152,-0.319 -0.239,-0.471c-0.266,-0.465 -0.598,-0.888 -0.983,-1.255c-0.489,-0.466 -1.065,-0.843 -1.699,-1.104c-0.005,-0.002 -0.01,-0.004 -0.016,-0.006c-0.313,-0.128 -0.64,-0.227 -0.979,-0.295c-0.008,-0.002 -0.017,-0.002 -0.025,-0.004c-0.339,-0.066 -0.69,-0.103 -1.049,-0.103c-0.353,0 -0.697,0.036 -1.031,0.1c-0.012,0.002 -0.024,0.003 -0.036,0.005c-0.332,0.066 -0.653,0.163 -0.96,0.287c-0.008,0.003 -0.017,0.006 -0.025,0.009c-0.312,0.127 -0.61,0.282 -0.89,0.462c-0.001,0.001 -0.002,0.001 -0.003,0.001c-0.283,0.182 -0.548,0.389 -0.792,0.618l-0.006,0.019l-0.02,0.005c-0.39,0.37 -0.725,0.797 -0.993,1.267c-0.003,0.006 -0.007,0.011 -0.01,0.016c-0.082,0.144 -0.155,0.294 -0.224,0.446c-0.007,0.016 -0.016,0.032 -0.023,0.048c-0.062,0.141 -0.115,0.287 -0.165,0.434c-0.01,0.029 -0.022,0.056 -0.031,0.085c-0.044,0.137 -0.079,0.278 -0.112,0.42c-0.009,0.04 -0.022,0.079 -0.031,0.12c-0.029,0.14 -0.049,0.282 -0.068,0.426c-0.005,0.044 -0.015,0.086 -0.02,0.13c-0.02,0.187 -0.03,0.378 -0.03,0.57c0,0.362 0.037,0.715 0.104,1.057c0.001,0.007 0.002,0.014 0.003,0.022c0.069,0.341 0.169,0.671 0.299,0.986c0.002,0.004 0.003,0.009 0.005,0.013c0.263,0.638 0.644,1.215 1.114,1.705c0.372,0.387 0.8,0.72 1.27,0.986c0.002,0.001 0.005,0.003 0.007,0.004c0.147,0.082 0.299,0.157 0.453,0.226c0.013,0.006 0.025,0.013 0.038,0.018c0.143,0.063 0.291,0.116 0.441,0.167c0.025,0.009 0.05,0.019 0.075,0.028c0.138,0.044 0.28,0.079 0.423,0.112c0.039,0.009 0.076,0.021 0.115,0.029c0.139,0.029 0.281,0.048 0.424,0.067c0.043,0.006 0.086,0.015 0.129,0.02c0.187,0.019 0.376,0.03 0.568,0.03c0.755,0 1.474,-0.153 2.129,-0.43c0.327,-0.138 0.638,-0.308 0.929,-0.504c0.582,-0.393 1.084,-0.895 1.477,-1.477c0.196,-0.291 0.366,-0.602 0.504,-0.929c0.277,-0.654 0.43,-1.374 0.43,-2.129c0,-0.013 -0.002,-0.025 -0.002,-0.038c0.001,-0.012 -0.001,-0.025 -0.001,-0.039Zm-5.465,-0.641c-1.135,0 -2.054,-0.92 -2.054,-2.054c0,-1.135 0.92,-2.054 2.054,-2.054c1.135,0 2.054,0.92 2.054,2.054c0.001,1.134 -0.919,2.054 -2.054,2.054Z" style="fill-rule:nonzero;"/><circle id="XMLID_69_" cx="60.875" cy="55.786" r="2.054" style="fill:#fff;"/><path id="XMLID_68_" d="M57.113,54.599l0.02,-0.005l0.006,-0.019l3.766,-11.518l0,-2.726c-2.097,-0.43 -4.254,-0.666 -6.462,-0.666c-0.737,0 -1.468,0.031 -2.194,0.081c-0.106,0.007 -0.212,0.014 -0.318,0.022c-3.781,0.287 -7.503,1.273 -10.95,2.846c-2.956,1.35 -5.703,3.128 -8.172,5.236c-0.001,0.001 -0.003,0.003 -0.004,0.004c-0.663,0.563 -1.298,1.158 -1.919,1.767c-0.116,0.114 -0.234,0.226 -0.348,0.341c-0.584,0.589 -1.149,1.197 -1.695,1.823c-0.119,0.136 -0.235,0.275 -0.352,0.413c-0.548,0.647 -1.082,1.306 -1.588,1.988c-0.042,0.057 -0.082,0.117 -0.124,0.174c-0.483,0.657 -0.942,1.331 -1.385,2.017c-0.086,0.134 -0.175,0.266 -0.26,0.401c-0.358,0.568 -0.692,1.152 -1.022,1.737l17.157,0l15.844,-3.916Z" style="fill:#bbbcbd;fill-rule:nonzero;"/><path id="XMLID_67_" d="M71.598,53.302c0.035,-0.449 0.064,-0.899 0.087,-1.348c0.031,-0.609 0.052,-1.218 0.064,-1.827c0.009,-0.473 0.008,-0.946 0.006,-1.419c-0.001,-0.137 0.003,-0.273 0.001,-0.41c-0.013,-1.219 -0.06,-2.44 -0.135,-3.661c-0.003,-0.002 -0.007,-0.005 -0.01,-0.007c-0.002,-0.003 -0.003,-0.006 -0.005,-0.009c-0.005,-0.003 -0.022,-0.013 -0.038,-0.022c-0.015,-0.008 -0.027,-0.016 -0.055,-0.031c-0.224,-0.129 -0.775,-0.444 -1.269,-0.725c-0.01,-0.006 -0.021,-0.012 -0.031,-0.018c-0.125,-0.071 -0.246,-0.139 -0.355,-0.201c-0.002,-0.001 -0.005,-0.003 -0.006,-0.004c-0.094,-0.053 -0.173,-0.097 -0.246,-0.138c-0.015,-0.008 -0.035,-0.02 -0.048,-0.027c-0.08,-0.045 -0.143,-0.079 -0.179,-0.097c-0.789,-0.409 -1.594,-0.788 -2.412,-1.134c-1.951,-0.824 -4.579,-1.546 -6.06,-1.895l0,2.726l3.733,11.537l0.004,0.01c0.385,0.367 0.717,0.79 0.983,1.255c0.087,0.153 0.167,0.31 0.239,0.471c0.002,0.003 0.003,0.006 0.005,0.01c0.072,0.16 0.135,0.325 0.191,0.493c0.001,0.004 0.003,0.008 0.004,0.012c0.055,0.168 0.103,0.339 0.142,0.514c0.001,0.005 0.002,0.009 0.003,0.014c0.039,0.176 0.07,0.356 0.091,0.539c0,0.003 0.001,0.005 0.001,0.008c0.022,0.185 0.034,0.373 0.037,0.564l0.014,0.031l4.571,0c0.309,-1.673 0.524,-3.368 0.661,-5.07c0.003,-0.047 0.008,-0.094 0.012,-0.141Z" style="fill:#e2dddb;fill-rule:nonzero;"/><path id="XMLID_66_" d="M77.576,49.223c-0.003,0.005 -0.005,0.011 -0.008,0.016c0.003,-0.005 0.006,-0.01 0.008,-0.016Z" style="fill:#fbb040;fill-rule:nonzero;"/><path id="XMLID_65_" d="M66.379,74.953c1.037,-1.032 2.016,-2.02 2.95,-2.989c0.555,-0.575 1.097,-1.145 1.615,-1.707c3.82,-4.147 6.625,-8.028 8.312,-13.02c0.04,-0.119 0.08,-0.275 0.118,-0.45c0.006,-0.027 0.012,-0.053 0.018,-0.081c0.04,-0.186 0.078,-0.393 0.116,-0.627c0.015,-0.161 0.031,-0.317 0.045,-0.468c-0.424,-2.174 -1.247,-4.286 -1.973,-6.373c0.003,0.007 0.005,0.014 0.008,0.021c-0.004,-0.004 -0.018,-0.017 -0.021,-0.02c-0.139,-0.132 -0.285,-0.255 -0.426,-0.385c-0.43,-0.396 -0.867,-0.783 -1.312,-1.158c-1.335,-1.126 -2.737,-2.152 -4.209,-3.059c0.075,1.221 0.122,2.442 0.135,3.661c0.002,0.137 -0.002,0.273 -0.001,0.41c0.002,0.473 0.003,0.946 -0.006,1.419c-0.012,0.609 -0.033,1.218 -0.064,1.827c-0.023,0.45 -0.052,0.899 -0.087,1.348c-0.004,0.047 -0.009,0.093 -0.012,0.14c-0.136,1.703 -0.352,3.397 -0.661,5.07l-0.537,2.539c-1.121,4.546 -3.399,8.67 -5.272,12.928c-0.497,1.129 -0.968,2.271 -1.381,3.434c-0.038,0.107 -0.078,0.219 -0.117,0.329c0.585,-0.615 1.103,-1.146 1.497,-1.536c0.43,-0.425 0.852,-0.842 1.265,-1.253Z" style="fill:#fbb040;fill-rule:nonzero;"/><path id="XMLID_64_" d="M57.139,54.575c0.244,-0.229 0.509,-0.436 0.792,-0.618c0.001,-0.001 0.002,-0.001 0.003,-0.001c0.28,-0.18 0.578,-0.335 0.89,-0.462c0.008,-0.003 0.017,-0.006 0.025,-0.009c0.307,-0.124 0.628,-0.221 0.96,-0.287c0.012,-0.002 0.024,-0.003 0.036,-0.005c0.334,-0.064 0.678,-0.1 1.031,-0.1c0.359,0 0.709,0.037 1.049,0.103c0.009,0.002 0.017,0.002 0.025,0.004c0.339,0.068 0.666,0.168 0.979,0.295c0.005,0.002 0.01,0.004 0.016,0.006c0.635,0.261 1.21,0.638 1.699,1.104l-0.004,-0.01l-3.733,-11.537l-3.768,11.517Z" style="fill:#909393;fill-rule:nonzero;"/><path id="XMLID_63_" d="M55.813,60.625c-0.129,-0.315 -0.23,-0.645 -0.299,-0.986c-0.001,-0.007 -0.002,-0.014 -0.003,-0.022c-0.067,-0.342 -0.104,-0.695 -0.104,-1.057c0,-0.193 0.01,-0.383 0.03,-0.57c0.005,-0.044 0.014,-0.086 0.02,-0.13c0.019,-0.143 0.038,-0.286 0.068,-0.426c0.009,-0.041 0.021,-0.08 0.031,-0.12c0.033,-0.142 0.068,-0.283 0.112,-0.42c0.009,-0.029 0.021,-0.056 0.031,-0.085c0.05,-0.147 0.103,-0.293 0.165,-0.434c0.007,-0.016 0.016,-0.032 0.023,-0.048c0.069,-0.152 0.142,-0.302 0.224,-0.446c0.003,-0.006 0.007,-0.011 0.01,-0.016c0.268,-0.47 0.603,-0.897 0.993,-1.267l-15.845,3.914l-0.03,0l15.694,3.83c-0.47,-0.49 -0.851,-1.067 -1.114,-1.705c-0.003,-0.003 -0.004,-0.008 -0.006,-0.012Z" style="fill:#676a6a;fill-rule:nonzero;"/><path id="XMLID_62_" d="M91.463,57.656c0.01,-0.071 0.025,-0.137 0.037,-0.206c0.04,-0.225 0.087,-0.445 0.148,-0.654c0.007,-0.023 0.01,-0.05 0.016,-0.073l2.067,-9.467l-0,-5.398c-1.689,-1.395 -3.498,-2.158 -5.382,-2.158c-2.379,0 -4.598,1.314 -6.257,2.937c-1.816,1.776 -3.218,4.011 -4.353,6.266c-0.052,0.104 -0.105,0.203 -0.157,0.308c0.35,0.303 0.696,0.61 1.037,0.922c0.773,0.707 1.529,1.432 2.274,2.168c0.348,0.343 0.688,0.693 1.03,1.042c0.363,0.369 0.726,0.738 1.083,1.113c0.459,0.483 0.915,0.97 1.366,1.462c0.19,0.207 0.379,0.415 0.567,0.623c0.543,0.602 1.084,1.206 1.616,1.819l0.001,0.001c0.089,0.094 0.152,0.16 0.176,0.188l4.662,0c-0,-0.038 0.008,-0.072 0.008,-0.11c0.007,-0.268 0.025,-0.531 0.061,-0.783Z" style="fill:#e2dddb;fill-rule:nonzero;"/><path id="XMLID_61_" d="M77.581,49.237c-0.002,-0.005 -0.003,-0.01 -0.005,-0.014c-0.003,0.005 -0.005,0.01 -0.008,0.016c0.003,0.003 0.017,0.016 0.021,0.02c-0.002,-0.007 -0.005,-0.014 -0.008,-0.022Z" style="fill:#e2dddb;fill-rule:nonzero;"/><path id="XMLID_60_" d="M21.3,64.47c0.013,-0.035 0.028,-0.069 0.041,-0.104c0.3,-0.785 0.629,-1.56 0.975,-2.327c0.096,-0.214 0.196,-0.425 0.295,-0.638c0.283,-0.602 0.582,-1.196 0.892,-1.785c0.126,-0.24 0.249,-0.48 0.38,-0.717c0.072,-0.131 0.154,-0.256 0.227,-0.387c0.331,-0.585 0.664,-1.169 1.022,-1.737c0.085,-0.135 0.174,-0.267 0.26,-0.401c0.443,-0.685 0.903,-1.36 1.385,-2.017c0.042,-0.057 0.081,-0.117 0.124,-0.174c0.506,-0.681 1.04,-1.341 1.588,-1.988c0.117,-0.138 0.233,-0.277 0.352,-0.413c0.546,-0.626 1.11,-1.234 1.695,-1.823c0.115,-0.115 0.232,-0.227 0.348,-0.341c0.621,-0.609 1.256,-1.203 1.919,-1.767c0.001,-0.001 0.003,-0.003 0.004,-0.004c2.607,-8.736 10.586,-15.095 20.027,-15.095c3.801,0 7.579,1.095 10.818,3.076c3.322,2.032 6.029,5.009 7.788,8.479c0.009,0.017 0.018,0.035 0.026,0.052c0.044,0.088 0.094,0.172 0.138,0.261c0.001,0.003 0.003,0.006 0.005,0.009c0.003,0.002 0.007,0.005 0.01,0.007c1.471,0.906 2.874,1.933 4.209,3.059c0.445,0.375 0.882,0.762 1.312,1.158c0.141,0.13 0.287,0.253 0.426,0.385c0.003,-0.005 0.005,-0.011 0.008,-0.016c0.002,-0.003 0.004,-0.007 0.005,-0.01c0.048,-0.099 0.095,-0.199 0.144,-0.295c1.33,-8.397 5.034,-14.446 9.403,-14.446c3.293,0 6.21,3.434 8.018,8.719l0.018,0.057c0.002,0.002 0.003,0.004 0.005,0.006c0.51,0.555 1.008,1.166 1.49,1.836l-0.001,0c0.01,0.013 0.019,0.025 0.029,0.038l0,-0.001l0,0.001c0.026,0.077 0.048,0.155 0.073,0.232l-0.069,-0.275c-5.435,-16.09 -20.653,-27.674 -38.577,-27.674c-22.483,0 -40.708,18.226 -40.708,40.708c0,4.432 0.708,8.699 2.023,12.67c0.002,-0.008 0.004,-0.015 0.005,-0.023c0.259,-1.198 0.568,-2.388 0.929,-3.566c0.285,-0.919 0.598,-1.829 0.939,-2.729Z" style="fill:#525353;fill-rule:nonzero;"/><path id="XMLID_59_" d="M97.301,58.567l-1.42,1.588c-0.001,0.004 -0.002,0.007 -0.003,0.011c-0.054,0.208 -0.12,0.404 -0.193,0.592c-0.019,0.05 -0.04,0.096 -0.061,0.144c-0.057,0.133 -0.117,0.26 -0.183,0.38c-0.035,0.064 -0.07,0.13 -0.107,0.19c-0.059,0.095 -0.122,0.18 -0.187,0.264c-0.093,0.121 -0.191,0.23 -0.294,0.326c-0.042,0.04 -0.083,0.083 -0.127,0.118c-0.08,0.064 -0.163,0.117 -0.247,0.165c-0.032,0.018 -0.064,0.036 -0.097,0.052c-0.203,0.099 -0.417,0.158 -0.639,0.158c-1.29,0 -2.336,-1.792 -2.336,-4.003l-4.687,0c0.001,0.001 0.002,0.002 0.003,0.003c0.87,1.005 1.726,2.024 2.569,3.052c0.01,0.012 0.02,0.025 0.031,0.037c0.82,1.001 1.629,2.012 2.428,3.028c0.039,0.05 0.079,0.099 0.118,0.149c0.758,0.967 1.508,1.94 2.251,2.915c0.072,0.095 0.145,0.189 0.217,0.283c0.786,1.034 1.565,2.071 2.337,3.109c0.005,0.007 0.011,0.015 0.016,0.022c1.339,-3.963 2.088,-8.196 2.135,-12.599l-1.509,0l-0.015,0.016Z" style="fill:#fff;fill-rule:nonzero;"/><path id="XMLID_58_" d="M51.931,39.766c0.106,-0.008 0.212,-0.015 0.318,-0.022c0.726,-0.049 1.457,-0.081 2.194,-0.081c2.207,0 4.364,0.237 6.462,0.666l0,1.037l0,-1.037c1.481,0.349 4.109,1.071 6.06,1.895c0.819,0.346 1.624,0.724 2.412,1.134c0.036,0.019 0.099,0.053 0.179,0.097c0.014,0.008 0.034,0.019 0.048,0.027c0.073,0.041 0.153,0.085 0.246,0.138c0.002,0.001 0.005,0.003 0.006,0.004c0.11,0.062 0.229,0.13 0.355,0.201c0.01,0.006 0.021,0.012 0.031,0.018c0.502,0.285 1.057,0.603 1.269,0.725c0.027,0.016 0.04,0.023 0.055,0.031c0.01,0.006 0.035,0.02 0.038,0.022c-0.044,-0.088 -0.094,-0.173 -0.138,-0.261c-0.009,-0.017 -0.017,-0.035 -0.026,-0.052c-1.758,-3.47 -4.466,-6.447 -7.788,-8.479c-3.239,-1.981 -7.018,-3.076 -10.818,-3.076c-9.441,0 -17.42,6.359 -20.027,15.095c2.469,-2.108 5.215,-3.886 8.172,-5.236c3.449,-1.574 7.172,-2.559 10.952,-2.846Z" style="fill-rule:nonzero;"/><path id="XMLID_57_" d="M60.906,41.367l0,0.243" style="fill:none;fill-rule:nonzero;"/><path id="XMLID_56_" d="M82.092,42.639c1.659,-1.623 3.878,-2.937 6.257,-2.937c1.884,0 3.693,0.763 5.382,2.158l0,0.019l0,-0.003c0.151,0.124 0.299,0.264 0.449,0.4c0.09,0.082 0.183,0.157 0.272,0.243c0.237,0.227 0.471,0.467 0.703,0.719c0.005,0.005 0.009,0.011 0.013,0.016c-0.001,-0.002 -0.003,-0.004 -0.005,-0.005l-0.019,-0.057c-1.808,-5.285 -4.725,-8.719 -8.018,-8.719c-4.369,0 -8.073,6.049 -9.403,14.446l0.014,-0.012c1.137,-2.257 2.54,-4.492 4.355,-6.268Z" style="fill-rule:nonzero;"/><path id="XMLID_55_" d="M43.54,96.09c0.372,0.143 0.75,0.272 1.127,0.404c4.211,1.475 8.733,2.288 13.449,2.288c5.377,0 10.505,-1.052 15.204,-2.946c0.249,-0.1 0.492,-0.21 0.738,-0.315c0.399,-0.17 0.795,-0.345 1.187,-0.527c0.351,-0.163 0.702,-0.325 1.047,-0.497c-0.083,0.01 -0.167,0.026 -0.25,0.036c-1.461,0.164 -2.91,0.174 -4.327,-0.029c-8.376,-1.204 -10.232,-5.243 -9.966,-9.449c-0.603,-0.348 -1.217,-0.739 -1.841,-1.192c-6.442,-4.673 -10.265,-9.652 -10.265,-9.652c0,0 4.969,3.836 12.392,6.707c0.159,0.062 0.308,0.115 0.465,0.174c0.347,-1.199 0.757,-2.339 1.118,-3.349c0.039,-0.11 0.079,-0.222 0.117,-0.329c0.413,-1.163 0.884,-2.304 1.381,-3.434c1.873,-4.258 4.15,-8.382 5.272,-12.928l0.537,-2.539l-4.581,0l0,0.009l-0.002,0.001c0,0.013 0.002,0.025 0.002,0.038c0,0.755 -0.153,1.474 -0.43,2.129c-0.139,0.327 -0.308,0.638 -0.504,0.929c-0.393,0.582 -0.895,1.084 -1.477,1.477c-0.291,0.197 -0.602,0.366 -0.929,0.504c-0.654,0.277 -1.374,0.43 -2.129,0.43c-0.192,0 -0.381,-0.01 -0.568,-0.03c-0.044,-0.005 -0.086,-0.014 -0.129,-0.02c-0.143,-0.018 -0.285,-0.038 -0.424,-0.067c-0.039,-0.008 -0.076,-0.02 -0.115,-0.029c-0.143,-0.033 -0.285,-0.068 -0.423,-0.112c-0.025,-0.008 -0.05,-0.019 -0.075,-0.028c-0.149,-0.05 -0.298,-0.104 -0.441,-0.167c-0.013,-0.006 -0.025,-0.012 -0.038,-0.018c-0.155,-0.069 -0.307,-0.143 -0.453,-0.226c-0.002,-0.001 -0.005,-0.003 -0.007,-0.004c-0.471,-0.265 -0.899,-0.598 -1.27,-0.986l-15.694,-3.83l-17.127,0c-0.074,0.13 -0.155,0.256 -0.227,0.387c-0.131,0.237 -0.254,0.478 -0.38,0.717c-0.31,0.588 -0.61,1.182 -0.892,1.785c-0.1,0.212 -0.199,0.424 -0.295,0.638c-0.345,0.767 -0.674,1.542 -0.975,2.327c-0.013,0.035 -0.028,0.069 -0.041,0.104c-0.341,0.9 -0.654,1.81 -0.935,2.728c-0.36,1.178 -0.67,2.368 -0.929,3.566c2.697,8.224 7.942,15.29 14.8,20.271c0.199,0.145 0.41,0.274 0.612,0.415c1.16,0.811 2.358,1.569 3.602,2.258c1.632,0.903 3.329,1.705 5.089,2.381Z" style="fill:#fff;fill-rule:nonzero;"/><path id="XMLID_54_" d="M71.646,83.446c-0.062,0.436 -0.105,0.865 -0.117,1.279c-0.024,0.753 0.028,1.468 0.138,2.144c0.073,0.451 0.171,0.884 0.289,1.298c0.177,0.622 0.399,1.203 0.648,1.74c0.248,0.537 0.523,1.03 0.805,1.478c0.094,0.149 0.189,0.293 0.284,0.432c0.143,0.208 0.286,0.404 0.427,0.588c0.187,0.245 0.368,0.46 0.543,0.662c0.747,0.859 1.335,1.326 1.335,1.326c0,0 0.004,0.014 0.012,0.038c0.008,0.024 0.02,0.06 0.034,0.103c0.083,-0.009 0.167,-0.025 0.25,-0.036c1.815,-0.227 3.644,-0.719 5.448,-1.368c0.92,-0.331 1.836,-0.69 2.738,-1.101c0.275,-0.126 0.544,-0.265 0.817,-0.397c9.325,-4.509 17.133,-12.484 17.133,-12.484c-11.718,5.756 -23.169,5.527 -30.784,4.298Z" style="fill:#9f2255;fill-rule:nonzero;"/><path id="XMLID_53_" d="M94.119,67.737c-0.743,-0.976 -1.492,-1.949 -2.251,-2.915c-0.039,-0.05 -0.079,-0.099 -0.118,-0.149c-0.799,-1.017 -1.608,-2.027 -2.428,-3.028c-0.01,-0.012 -0.02,-0.025 -0.031,-0.037c-0.844,-1.028 -1.699,-2.047 -2.569,-3.052c-0.055,-0.064 -0.11,-0.128 -0.166,-0.192c-0.532,-0.612 -1.073,-1.217 -1.616,-1.819c-0.189,-0.208 -0.377,-0.416 -0.567,-0.623c-0.451,-0.492 -0.906,-0.979 -1.366,-1.462c-0.358,-0.375 -0.72,-0.744 -1.083,-1.113c-0.342,-0.348 -0.683,-0.699 -1.03,-1.042c-0.747,-0.735 -1.502,-1.461 -2.274,-2.168c-0.342,-0.312 -0.688,-0.62 -1.038,-0.923c-0.002,0.004 -0.003,0.007 -0.005,0.01c0.736,2.114 1.575,4.255 1.995,6.459c0.109,0.573 0.2,1.132 0.273,1.677c1.025,7.631 -1.42,12.613 -5.304,19.167c-0.278,0.47 -0.564,0.947 -0.856,1.435c-0.888,1.48 -1.457,2.882 -1.786,4.199c-0.11,0.439 -0.193,0.868 -0.253,1.287c7.615,1.229 19.066,1.458 30.782,-4.299c0,0 -2.297,-3.377 -5.755,-8.019c-0.773,-1.038 -1.552,-2.075 -2.337,-3.109c-0.072,-0.096 -0.145,-0.19 -0.217,-0.284Z" style="fill:#e2066f;fill-rule:nonzero;"/><path id="XMLID_52_" d="M75.996,94.392c0,0 -0.588,-0.466 -1.335,-1.326c-0.175,-0.202 -0.355,-0.417 -0.543,-0.662c-0.141,-0.184 -0.284,-0.38 -0.427,-0.588c-0.095,-0.139 -0.19,-0.283 -0.284,-0.432c-0.282,-0.447 -0.557,-0.94 -0.805,-1.478c-0.248,-0.537 -0.47,-1.118 -0.648,-1.74c-0.118,-0.415 -0.216,-0.848 -0.289,-1.298c-0.109,-0.676 -0.161,-1.391 -0.138,-2.144c0.013,-0.414 0.055,-0.843 0.117,-1.279c0.06,-0.419 0.143,-0.849 0.253,-1.287c0.329,-1.316 0.898,-2.718 1.786,-4.199c0.003,-0.004 0.005,-0.008 0.007,-0.012c0.29,-0.483 0.573,-0.957 0.849,-1.422c3.883,-6.554 6.328,-11.536 5.304,-19.167c-0.073,-0.545 -0.164,-1.103 -0.273,-1.677c-0.058,0.396 -0.118,0.737 -0.179,1.024c-0.006,0.028 -0.012,0.054 -0.018,0.081c-0.039,0.174 -0.078,0.332 -0.118,0.45c-1.687,4.992 -4.492,8.873 -8.312,13.02c-0.518,0.562 -1.06,1.132 -1.615,1.707c-0.934,0.968 -1.913,1.957 -2.95,2.989c-0.413,0.411 -0.835,0.829 -1.264,1.254c-0.394,0.39 -0.912,0.922 -1.497,1.536c-0.361,1.011 -0.772,2.151 -1.118,3.349c-0.156,-0.059 -0.305,-0.112 -0.465,-0.174c-7.422,-2.871 -12.392,-6.707 -12.392,-6.707c0,0 3.823,4.979 10.265,9.652c0.624,0.453 1.238,0.844 1.841,1.192c-0.266,4.206 1.59,8.245 9.966,9.449c1.416,0.204 2.866,0.194 4.327,0.029c-0.015,-0.043 -0.026,-0.079 -0.034,-0.103c-0.007,-0.023 -0.011,-0.037 -0.011,-0.037Z" style="fill-rule:nonzero;"/></g></g></svg>