<svg width="50" height="50" viewBox="0 0 250 250" version="1.1" xmlns="http://www.w3.org/2000/svg" xmlns:xlink="http://www.w3.org/1999/xlink" xml:space="preserve" ><path d="M1.311,64.777c3.442,-8.235 12.045,-14.134 21.018,-14.134l203.29,-0c5.9,-0.123 11.8,2.089 16.101,6.022c4.917,4.425 7.744,11.062 7.621,17.699l-0,77.924c-0.123,11.676 -10.325,22.247 -22.001,22.492c-24.705,0.123 -49.409,0 -74.114,0c3.319,8.235 6.637,16.347 9.956,24.582c-14.749,-8.112 -29.252,-16.47 -44.124,-24.459c-32.448,-0.245 -65.019,0 -97.59,-0.123c-11.676,-0.368 -21.878,-10.816 -22,-22.492c-0.123,-25.442 -0,-50.884 -0.123,-76.203c-0,-3.81 0.368,-7.743 1.966,-11.308" style="fill:#945c87;"/><path d="M100.621,66.621c3.688,-3.933 10.816,-2.704 13.643,1.843c1.475,2.336 1.598,5.531 0.369,7.99c-5.162,10.324 -7.375,21.754 -9.341,32.939c-2.335,14.626 -4.302,29.498 -3.565,44.37c0.246,3.81 -1.597,8.358 -5.653,9.341c-3.81,0.86 -7.375,-1.721 -9.833,-4.425c-11.062,-11.922 -17.33,-27.285 -21.878,-42.649c-4.547,8.972 -9.095,18.068 -13.52,27.04c-3.072,6.145 -6.391,12.414 -11.307,17.33c-2.09,2.09 -5.654,3.933 -8.358,1.844c-4.056,-3.565 -5.039,-9.218 -6.76,-14.012c-6.514,-22.492 -10.201,-45.722 -14.012,-68.829c-0.86,-3.81 0.738,-8.48 4.548,-9.955c3.073,-1.106 7.129,-1.352 9.71,0.983c1.843,1.598 2.335,4.179 2.704,6.514c2.704,17.945 5.776,35.767 10.201,53.343c7.375,-14.012 14.749,-28.024 22.124,-42.158c1.106,-2.09 2.458,-4.179 4.424,-5.408c2.704,-1.721 6.638,-1.598 8.973,0.86c1.843,1.967 2.581,4.794 3.072,7.375c2.213,11.553 5.163,23.107 9.464,34.045c1.844,-16.592 4.179,-33.431 10.202,-49.04c1.352,-3.319 2.581,-6.637 4.793,-9.341m41.666,8.972c7.989,-0.983 16.593,1.721 22.001,7.743c4.425,5.04 6.883,11.554 7.743,18.068c1.352,11.185 -0.737,22.984 -6.145,32.939c-3.073,5.654 -7.006,11.185 -12.66,14.504c-8.235,5.039 -19.296,4.424 -27.286,-0.861c-6.391,-4.424 -9.955,-11.799 -11.43,-19.173c-2.95,-16.839 2.089,-35.521 14.749,-47.197c3.687,-3.319 8.235,-5.408 13.028,-6.023m1.598,17.207c-3.81,1.229 -6.268,4.794 -8.358,7.989c-5.162,8.358 -6.637,19.297 -2.458,28.269c1.106,2.336 2.827,4.917 5.654,5.408c2.95,0.492 5.654,-1.229 7.743,-3.072c4.671,-4.056 7.006,-10.079 8.235,-16.101c1.229,-6.76 0.615,-14.258 -3.318,-20.157c-1.598,-2.213 -4.794,-3.196 -7.498,-2.336m62.192,-17.207c7.743,-0.983 16.224,1.475 21.632,7.252c4.916,5.285 7.497,12.291 8.235,19.419c1.106,10.816 -0.861,22.124 -6.023,31.711c-3.073,5.776 -7.129,11.43 -13.028,14.872c-7.866,4.793 -18.436,4.302 -26.303,-0.369c-5.285,-3.196 -8.849,-8.604 -10.938,-14.38c-5.531,-17.576 -0.861,-38.225 11.922,-51.499c4.179,-3.687 9.218,-6.391 14.503,-7.006m1.721,17.207c-4.179,1.475 -6.637,5.531 -8.85,9.096c-4.67,8.234 -5.899,18.928 -1.598,27.654c1.107,2.458 3.196,4.793 6.023,4.916c3.073,0.123 5.777,-1.843 7.989,-3.933c4.793,-4.67 6.883,-11.307 7.62,-17.821c0.738,-6.023 -0.245,-12.537 -3.81,-17.699c-1.475,-2.09 -4.67,-3.073 -7.374,-2.213" style="fill:#fff;"/></svg>