<svg width="32" height="32" viewBox="0 0 512 512" version="1.1" xmlns="http://www.w3.org/2000/svg" ><path id="icon" d="M450.334,37.255c-7.243,-15.157 -22.511,-24.943 -39.308,-25.194l-310.117,0c-7.018,0.14 -13.905,1.939 -20.095,5.25c-14.366,7.726 -23.373,22.759 -23.408,39.071l-0,193.506c-0.007,14.82 7.428,28.695 19.772,36.898l122.635,81.757l0,87.114c0.022,24.299 20.022,44.282 44.321,44.282c8.726,-0 17.26,-2.577 24.527,-7.405l166.161,-110.803c12.349,-8.187 19.787,-22.059 19.772,-36.876l-0,-288.473c0.028,-6.614 -1.428,-13.15 -4.26,-19.127Zm-250.478,129.929l0,142.86c0.001,0.008 0.001,0.016 0.001,0.024c-0,2.644 -2.176,4.819 -4.82,4.819c-0.958,0 -1.894,-0.286 -2.689,-0.82l-89.46,-59.64c-2.678,-1.789 -4.294,-4.803 -4.303,-8.025l0,-190.02c-0.061,-1.133 0.557,-2.201 1.571,-2.711c0.368,-0.213 0.767,-0.365 1.183,-0.452l0.732,0c0.521,0.07 1.021,0.254 1.463,0.538l115.449,76.959c-11.982,8.256 -19.146,21.917 -19.127,36.468Zm-22.891,-113.922l158.221,0l-79.132,52.734l-79.089,-52.734Zm236.535,286.623c0.016,3.124 -1.496,6.067 -4.045,7.874c-25.818,18.224 -163.513,110.48 -163.513,110.48c-0.956,0.706 -2.247,0.774 -3.271,0.172c-1.058,-0.496 -1.714,-1.587 -1.656,-2.754l-0,-288.473c-0.012,-1.055 0.516,-2.046 1.398,-2.625l166.139,-110.759c0.415,-0.298 0.894,-0.497 1.398,-0.581l0.603,0c0.443,0.049 0.874,0.181 1.269,0.388c1.061,0.503 1.718,1.602 1.657,2.775l0.021,283.503Z" style="fill:#e74335;fill-rule:nonzero;"/></svg>