<?xml version="1.0" encoding="UTF-8" standalone="no"?><!DOCTYPE svg PUBLIC "-//W3C//DTD SVG 1.1//EN" "http://www.w3.org/Graphics/SVG/1.1/DTD/svg11.dtd"><svg width="100%" height="100%" viewBox="0 0 100 100" version="1.1" xmlns="http://www.w3.org/2000/svg" xmlns:xlink="http://www.w3.org/1999/xlink" xml:space="preserve" xmlns:serif="http://www.serif.com/" style="fill-rule:evenodd;clip-rule:evenodd;stroke-linejoin:round;stroke-miterlimit:2;"><g><g><g><path d="M41.836,45.977l12.207,12.207c1.084,1.084 3.076,1.162 4.141,-0c1.074,-1.172 1.162,-2.989 -0,-4.141l-12.207,-12.207c-1.084,-1.084 -3.077,-1.162 -4.141,-0c-1.074,1.162 -1.162,2.978 -0,4.141Z" style="fill-rule:nonzero;"/></g></g><g><g><path d="M64.951,58.115l17.276,-17.275c1.084,-1.084 1.162,-3.076 -0,-4.141c-1.172,-1.074 -2.989,-1.162 -4.141,0l-17.275,17.276c-1.084,1.084 -1.163,3.076 -0,4.14c1.162,1.074 2.978,1.153 4.14,0Z" style="fill-rule:nonzero;"/></g></g><g><g><path d="M35.146,41.777l-17.373,17.373c-1.084,1.084 -1.162,3.077 0,4.141c1.172,1.074 2.989,1.162 4.141,0l17.373,-17.373c1.084,-1.084 1.162,-3.076 0,-4.141c-1.172,-1.074 -2.988,-1.152 -4.141,0Z" style="fill-rule:nonzero;"/></g></g><g><g><path d="M17.773,63.291c0.098,0.098 0.186,0.215 0.284,0.313c-0.547,-0.538 -0.284,-0.381 -0.127,-0.147c0.146,0.225 0.273,0.469 0.39,0.723c-0.097,-0.235 -0.195,-0.469 -0.293,-0.703c0.176,0.419 0.293,0.839 0.352,1.289c-0.039,-0.264 -0.068,-0.518 -0.108,-0.782c0.049,0.401 0.049,0.791 0,1.192c0.04,-0.264 0.069,-0.518 0.108,-0.781c-0.059,0.449 -0.176,0.869 -0.352,1.289c0.098,-0.235 0.196,-0.469 0.293,-0.704c-0.107,0.254 -0.234,0.489 -0.39,0.723c-0.157,0.234 -0.42,0.391 0.127,-0.146c-0.098,0.097 -0.186,0.214 -0.284,0.312c-0.078,0.078 -0.214,0.274 -0.312,0.283c0.127,-0.097 0.244,-0.185 0.371,-0.283c-0.078,0.059 -0.146,0.108 -0.225,0.156c-0.224,0.147 -0.468,0.274 -0.722,0.391c0.234,-0.098 0.469,-0.195 0.703,-0.293c-0.42,0.176 -0.84,0.283 -1.289,0.352c0.264,-0.039 0.517,-0.069 0.781,-0.108c-0.4,0.049 -0.791,0.049 -1.191,0c0.263,0.039 0.517,0.069 0.781,0.108c-0.449,-0.059 -0.869,-0.176 -1.289,-0.352c0.234,0.098 0.469,0.195 0.703,0.293c-0.254,-0.107 -0.488,-0.234 -0.723,-0.391c-0.234,-0.156 -0.39,-0.42 0.147,0.127c-0.098,-0.097 -0.215,-0.185 -0.313,-0.283c-0.078,-0.078 -0.273,-0.215 -0.283,-0.312c0.098,0.127 0.186,0.244 0.283,0.371c-0.058,-0.078 -0.107,-0.147 -0.156,-0.225c-0.146,-0.224 -0.273,-0.469 -0.391,-0.723c0.098,0.235 0.196,0.469 0.293,0.704c-0.175,-0.42 -0.283,-0.84 -0.351,-1.289c0.039,0.263 0.068,0.517 0.107,0.781c-0.049,-0.401 -0.049,-0.791 0,-1.192c-0.039,0.264 -0.068,0.518 -0.107,0.782c0.058,-0.45 0.176,-0.87 0.351,-1.289c-0.097,0.234 -0.195,0.468 -0.293,0.703c0.108,-0.254 0.235,-0.489 0.391,-0.723c0.156,-0.234 0.42,-0.391 -0.127,0.147c0.098,-0.098 0.186,-0.215 0.283,-0.313c0.078,-0.078 0.215,-0.273 0.313,-0.283c-0.127,0.097 -0.244,0.185 -0.371,0.283c0.078,-0.059 0.146,-0.107 0.224,-0.156c0.225,-0.147 0.469,-0.274 0.723,-0.391c-0.234,0.098 -0.469,0.195 -0.703,0.293c0.42,-0.176 0.84,-0.293 1.289,-0.351c-0.264,0.039 -0.518,0.068 -0.781,0.107c0.4,-0.049 0.791,-0.049 1.191,-0c-0.264,-0.039 -0.517,-0.068 -0.781,-0.107c0.449,0.058 0.869,0.175 1.289,0.351c-0.234,-0.098 -0.469,-0.195 -0.703,-0.293c0.254,0.108 0.488,0.235 0.722,0.391c0.039,0.029 0.079,0.049 0.118,0.078c0.234,0.176 0.156,0.107 -0.264,-0.205c0.088,0.097 0.215,0.185 0.312,0.283c1.104,1.064 3.067,1.182 4.141,0c1.065,-1.152 1.172,-2.998 0,-4.141c-2.412,-2.334 -5.908,-2.851 -8.916,-1.406c-2.656,1.279 -4.443,4.365 -4.18,7.305c0.293,3.271 2.491,6.191 5.762,6.982c3.242,0.781 6.445,-0.547 8.33,-3.252c2.061,-2.959 1.445,-7.119 -1.006,-9.638c-1.074,-1.104 -3.086,-1.153 -4.14,-0c-1.075,1.191 -1.133,2.968 0.009,4.15Z" style="fill-rule:nonzero;"/></g></g><g><g><path d="M41.865,39.199c0.098,0.098 0.186,0.215 0.293,0.313c-0.547,-0.547 -0.283,-0.381 -0.127,-0.147c0.147,0.235 0.274,0.469 0.381,0.723c-0.098,-0.234 -0.195,-0.469 -0.293,-0.703c0.156,0.381 0.264,0.761 0.322,1.162c-0.039,-0.264 -0.068,-0.518 -0.107,-0.781c0.059,0.449 0.059,0.888 0.01,1.338c0.039,-0.264 0.068,-0.518 0.107,-0.782c-0.068,0.449 -0.185,0.879 -0.361,1.299c0.097,-0.234 0.195,-0.469 0.293,-0.703c-0.117,0.254 -0.244,0.498 -0.391,0.723c-0.156,0.234 -0.42,0.39 0.127,-0.147c-0.098,0.098 -0.185,0.215 -0.293,0.313c-0.068,0.068 -0.215,0.273 -0.312,0.283c0.127,-0.098 0.254,-0.195 0.371,-0.283c-0.078,0.058 -0.147,0.107 -0.225,0.156c-0.224,0.146 -0.469,0.273 -0.713,0.381c0.235,-0.098 0.469,-0.196 0.703,-0.293c-0.371,0.146 -0.752,0.254 -1.152,0.322c0.264,-0.039 0.518,-0.068 0.781,-0.107c-0.439,0.058 -0.879,0.058 -1.318,-0c0.264,0.039 0.518,0.068 0.781,0.107c-0.4,-0.059 -0.781,-0.166 -1.152,-0.312c0.234,0.097 0.469,0.195 0.703,0.293c-0.254,-0.108 -0.498,-0.225 -0.723,-0.372c-0.117,-0.068 -0.224,-0.166 -0.341,-0.234c0.732,0.439 0.322,0.244 0.117,0.049c-0.108,-0.098 -0.196,-0.205 -0.293,-0.313c-0.215,-0.224 0.459,0.655 0.117,0.147c-0.166,-0.244 -0.303,-0.508 -0.43,-0.781c0.098,0.234 0.196,0.468 0.293,0.703c-0.176,-0.42 -0.293,-0.84 -0.351,-1.289c0.039,0.263 0.068,0.517 0.107,0.781c-0.049,-0.4 -0.049,-0.791 0,-1.191c-0.039,0.263 -0.068,0.517 -0.107,0.781c0.058,-0.449 0.175,-0.869 0.351,-1.289c-0.097,0.234 -0.195,0.468 -0.293,0.703c0.108,-0.254 0.235,-0.488 0.391,-0.723c0.156,-0.234 0.42,-0.39 -0.127,0.147c0.098,-0.098 0.185,-0.215 0.293,-0.313c0.078,-0.078 0.215,-0.273 0.312,-0.293c-0.127,0.098 -0.244,0.186 -0.371,0.283c0.078,-0.058 0.147,-0.107 0.225,-0.156c0.224,-0.146 0.469,-0.273 0.723,-0.39c-0.235,0.097 -0.469,0.195 -0.704,0.292c0.42,-0.175 0.84,-0.283 1.289,-0.351c-0.263,0.039 -0.517,0.068 -0.781,0.107c0.401,-0.039 0.791,-0.039 1.192,0c-0.264,-0.039 -0.518,-0.068 -0.782,-0.107c0.45,0.068 0.87,0.185 1.289,0.351c-0.234,-0.097 -0.468,-0.195 -0.703,-0.292c0.254,0.117 0.489,0.234 0.723,0.39c0.039,0.029 0.078,0.049 0.117,0.078c0.235,0.176 0.156,0.108 -0.264,-0.205c0.079,0.147 0.206,0.235 0.303,0.332c1.104,1.065 3.067,1.182 4.141,0c1.064,-1.152 1.172,-2.998 -0,-4.14c-2.412,-2.344 -5.918,-2.862 -8.926,-1.426c-2.666,1.269 -4.453,4.365 -4.18,7.314c0.157,1.768 0.791,3.311 1.954,4.658c0.966,1.124 2.382,1.983 3.818,2.334c1.426,0.362 3.037,0.352 4.424,-0.175c1.621,-0.616 2.89,-1.612 3.886,-3.037c2.071,-2.969 1.485,-7.149 -0.966,-9.678c-1.065,-1.104 -3.086,-1.153 -4.141,-0c-1.094,1.191 -1.152,2.969 -0.01,4.15Z" style="fill-rule:nonzero;"/></g></g><g><g><path d="M84.805,34.121c0.097,0.098 0.185,0.215 0.283,0.313c-0.547,-0.538 -0.283,-0.381 -0.127,-0.147c0.146,0.225 0.273,0.469 0.391,0.723c-0.098,-0.235 -0.196,-0.469 -0.293,-0.703c0.175,0.42 0.283,0.839 0.351,1.289c-0.039,-0.264 -0.068,-0.518 -0.107,-0.782c0.049,0.401 0.049,0.791 -0,1.192c0.039,-0.264 0.068,-0.518 0.107,-0.781c-0.058,0.449 -0.176,0.869 -0.351,1.289c0.097,-0.235 0.195,-0.469 0.293,-0.703c-0.108,0.253 -0.235,0.488 -0.391,0.722c-0.156,0.235 -0.42,0.391 0.127,-0.146c-0.098,0.097 -0.186,0.215 -0.283,0.312c-0.078,0.078 -0.215,0.274 -0.313,0.283c0.127,-0.097 0.244,-0.185 0.371,-0.283c-0.078,0.059 -0.146,0.108 -0.224,0.156c-0.225,0.147 -0.469,0.274 -0.723,0.391c0.234,-0.098 0.469,-0.195 0.703,-0.293c-0.42,0.176 -0.84,0.283 -1.289,0.352c0.264,-0.039 0.518,-0.069 0.781,-0.108c-0.4,0.049 -0.791,0.039 -1.191,0c0.264,0.039 0.517,0.069 0.781,0.108c-0.449,-0.059 -0.869,-0.176 -1.289,-0.352c0.234,0.098 0.469,0.195 0.703,0.293c-0.254,-0.107 -0.488,-0.234 -0.722,-0.391c-0.235,-0.156 -0.391,-0.419 0.146,0.127c-0.098,-0.097 -0.215,-0.185 -0.312,-0.283c-0.079,-0.078 -0.274,-0.215 -0.284,-0.312c0.098,0.127 0.186,0.244 0.284,0.371c-0.059,-0.078 -0.108,-0.147 -0.157,-0.225c-0.146,-0.224 -0.273,-0.469 -0.39,-0.722c0.097,0.234 0.195,0.468 0.293,0.703c-0.176,-0.42 -0.284,-0.84 -0.352,-1.289c0.039,0.263 0.068,0.517 0.108,0.781c-0.049,-0.401 -0.04,-0.791 -0,-1.192c-0.04,0.264 -0.069,0.518 -0.108,0.782c0.059,-0.45 0.176,-0.869 0.352,-1.289c-0.098,0.234 -0.196,0.468 -0.293,0.703c0.107,-0.254 0.234,-0.489 0.39,-0.723c0.157,-0.234 0.42,-0.391 -0.127,0.147c0.098,-0.098 0.186,-0.215 0.284,-0.313c0.078,-0.078 0.214,-0.273 0.312,-0.283c-0.127,0.098 -0.244,0.185 -0.371,0.283c0.078,-0.059 0.146,-0.107 0.225,-0.156c0.224,-0.147 0.468,-0.274 0.722,-0.391c-0.234,0.098 -0.469,0.196 -0.703,0.293c0.42,-0.176 0.84,-0.283 1.289,-0.351c-0.264,0.039 -0.517,0.068 -0.781,0.107c0.4,-0.049 0.791,-0.049 1.191,0c-0.263,-0.039 -0.517,-0.068 -0.781,-0.107c0.449,0.058 0.869,0.175 1.289,0.351c-0.234,-0.097 -0.469,-0.195 -0.703,-0.293c0.254,0.108 0.488,0.235 0.723,0.391c0.039,0.029 0.078,0.049 0.117,0.078c0.234,0.176 0.156,0.107 -0.264,-0.205c0.088,0.098 0.215,0.185 0.313,0.283c1.103,1.065 3.066,1.182 4.14,0c1.065,-1.152 1.172,-2.998 0,-4.141c-2.412,-2.334 -5.908,-2.851 -8.916,-1.406c-2.656,1.27 -4.443,4.365 -4.179,7.305c0.283,3.271 2.49,6.191 5.761,6.982c1.436,0.352 3.047,0.332 4.444,-0.195c1.621,-0.625 2.9,-1.621 3.896,-3.047c2.061,-2.959 1.445,-7.109 -0.996,-9.629c-1.074,-1.103 -3.086,-1.152 -4.141,0c-1.093,1.172 -1.142,2.959 -0.009,4.131Z" style="fill-rule:nonzero;"/></g></g><g><g><path d="M60.811,58.115c0.097,0.098 0.185,0.215 0.283,0.313c-0.547,-0.547 -0.283,-0.381 -0.127,-0.147c0.146,0.225 0.273,0.469 0.381,0.723c-0.098,-0.234 -0.196,-0.469 -0.293,-0.703c0.175,0.42 0.283,0.84 0.351,1.289c-0.039,-0.264 -0.068,-0.518 -0.107,-0.781c0.039,0.4 0.039,0.8 -0,1.201c0.039,-0.264 0.068,-0.518 0.107,-0.781c-0.058,0.449 -0.176,0.869 -0.351,1.289c0.097,-0.235 0.195,-0.469 0.293,-0.704c-0.108,0.254 -0.235,0.489 -0.391,0.723c-0.156,0.234 -0.42,0.391 0.127,-0.146c-0.098,0.097 -0.186,0.214 -0.283,0.312c-0.078,0.078 -0.215,0.274 -0.313,0.283c0.127,-0.097 0.244,-0.185 0.371,-0.283c-0.078,0.059 -0.146,0.108 -0.224,0.156c-0.225,0.147 -0.469,0.274 -0.723,0.391c0.234,-0.098 0.469,-0.195 0.703,-0.293c-0.42,0.176 -0.84,0.293 -1.289,0.352c0.264,-0.039 0.518,-0.069 0.781,-0.108c-0.4,0.049 -0.791,0.049 -1.191,0c0.264,0.039 0.518,0.069 0.781,0.108c-0.449,-0.059 -0.869,-0.176 -1.289,-0.352c0.235,0.098 0.469,0.195 0.703,0.293c-0.254,-0.107 -0.488,-0.234 -0.722,-0.391c-0.235,-0.156 -0.401,-0.42 0.146,0.127c-0.098,-0.097 -0.215,-0.185 -0.312,-0.283c-0.078,-0.078 -0.264,-0.215 -0.293,-0.312c0.097,0.127 0.185,0.244 0.283,0.371c-0.059,-0.078 -0.108,-0.157 -0.156,-0.235c-0.147,-0.234 -0.274,-0.478 -0.391,-0.732c0.098,0.234 0.195,0.469 0.293,0.703c-0.156,-0.381 -0.264,-0.762 -0.322,-1.172c0.039,0.264 0.068,0.518 0.107,0.781c-0.058,-0.449 -0.058,-0.888 -0.01,-1.337c-0.039,0.263 -0.068,0.517 -0.107,0.781c0.059,-0.401 0.166,-0.791 0.312,-1.172c-0.097,0.234 -0.195,0.469 -0.293,0.703c0.108,-0.254 0.235,-0.498 0.381,-0.732c0.147,-0.235 0.45,-0.391 -0.127,0.136c0.108,-0.097 0.186,-0.215 0.284,-0.322c1.084,-1.152 1.142,-2.998 -0,-4.141c-1.084,-1.084 -3.077,-1.162 -4.141,0c-1.074,1.172 -1.162,2.989 -0,4.141c1.133,1.133 3.008,1.104 4.141,0c0.097,-0.098 0.224,-0.176 0.312,-0.283c-0.42,0.312 -0.508,0.381 -0.264,0.205c0.059,-0.039 0.108,-0.078 0.166,-0.117c0.245,-0.157 0.508,-0.293 0.772,-0.401c-0.234,0.098 -0.469,0.196 -0.703,0.293c0.371,-0.146 0.752,-0.254 1.152,-0.312c-0.264,0.039 -0.517,0.068 -0.781,0.107c0.439,-0.058 0.869,-0.068 1.318,-0.019c-0.263,-0.039 -0.517,-0.069 -0.781,-0.108c0.439,0.059 0.859,0.176 1.27,0.342c-0.235,-0.098 -0.469,-0.195 -0.704,-0.293c0.245,0.108 0.489,0.234 0.713,0.381c0.254,0.166 0.342,0.439 -0.156,-0.137c0.088,0.108 0.215,0.196 0.313,0.293c1.103,1.065 3.066,1.182 4.14,0c1.065,-1.152 1.172,-3.008 0,-4.14c-3.037,-2.95 -7.89,-2.871 -10.918,0.058l4.141,0c-1.084,-1.084 -3.076,-1.162 -4.141,0c-1.074,1.172 -1.162,2.988 0,4.141l0,-4.141c-1.67,1.768 -2.431,4.082 -2.109,6.485c0.312,2.334 1.758,4.511 3.847,5.634c2.1,1.123 4.551,1.241 6.739,0.323c2.168,-0.918 3.877,-2.852 4.433,-5.147c0.645,-2.646 -0.117,-5.4 -2.002,-7.344c-1.074,-1.103 -3.086,-1.152 -4.14,0c-1.084,1.172 -1.133,2.95 0.01,4.131Z" style="fill-rule:nonzero;"/></g></g></g></svg>