<?xml version="1.0" encoding="UTF-8" standalone="no"?><!DOCTYPE svg PUBLIC "-//W3C//DTD SVG 1.1//EN" "http://www.w3.org/Graphics/SVG/1.1/DTD/svg11.dtd"><svg width="100" height="100" viewBox="0 0 100 100" version="1.1" xmlns="http://www.w3.org/2000/svg" xmlns:xlink="http://www.w3.org/1999/xlink" xml:space="preserve" xmlns:serif="http://www.serif.com/" style="fill-rule:evenodd;clip-rule:evenodd;stroke-linejoin:round;stroke-miterlimit:2;"><g><path d="M49.531,35.966c-1.027,0.099 -1.999,0.514 -2.781,1.187l-21,18c-1.183,0.949 -1.873,2.386 -1.873,3.902c-0,2.743 2.257,5 5,5c1.248,0 2.452,-0.467 3.373,-1.308l17.75,-15.219l17.75,15.219c0.921,0.841 2.125,1.308 3.373,1.308c2.743,0 5,-2.257 5,-5c0,-1.516 -0.69,-2.953 -1.873,-3.902l-21,-18c-1.027,-0.883 -2.37,-1.312 -3.719,-1.187Z" style="fill-rule:nonzero;"/></g></svg>