<?xml version="1.0" encoding="UTF-8" standalone="no"?><!DOCTYPE svg PUBLIC "-//W3C//DTD SVG 1.1//EN" "http://www.w3.org/Graphics/SVG/1.1/DTD/svg11.dtd"><svg width="100%" height="100%" viewBox="0 0 314 184" version="1.1" xmlns="http://www.w3.org/2000/svg" xmlns:xlink="http://www.w3.org/1999/xlink" xml:space="preserve" xmlns:serif="http://www.serif.com/" style="fill-rule:evenodd;clip-rule:evenodd;stroke-linejoin:round;stroke-miterlimit:2;"><g id="horizontal"><path d="M309.939,13.606c-0,-5.52 -4.481,-10 -10,-10l-286.333,-0c-5.52,-0 -10,4.48 -10,10l-0,155.915c-0,5.519 4.48,10 10,10l286.333,0c5.519,0 10,-4.481 10,-10l-0,-155.915Z" style="fill:#fff;"/><path d="M311.939,13.606c-0,-6.623 -5.377,-12 -12,-12c-0,-0 -286.333,-0 -286.333,-0c-6.623,-0 -12,5.377 -12,12c-0,-0 -0,155.915 -0,155.915c-0,6.623 5.377,12 12,12c-0,0 286.333,0 286.333,0c6.623,0 12,-5.377 12,-12c-0,0 -0,-155.915 -0,-155.915Zm-2,-0c-0,-5.52 -4.481,-10 -10,-10l-286.333,-0c-5.52,-0 -10,4.48 -10,10l-0,155.915c-0,5.519 4.48,10 10,10l286.333,0c5.519,0 10,-4.481 10,-10l-0,-155.915Z" style="fill:#f1f1f1;"/><path d="M165.035,21.335c0,-1.104 -0.896,-2 -2,-2l-137.714,0c-1.104,0 -2,0.896 -2,2l-0,21.809c-0,1.104 0.896,2 2,2l137.714,0c1.104,0 2,-0.896 2,-2l0,-21.809Z" style="fill:#f1f1f1;"/><rect x="163.272" y="65.365" width="123.122" height="16.229" style="fill:#f1f1f1;"/><path d="M256.048,145.392c-0,-2.76 -2.241,-5 -5,-5l-83.276,0c-2.759,0 -5,2.24 -5,5l0,8.762c0,2.759 2.241,5 5,5l83.276,-0c2.759,-0 5,-2.241 5,-5l-0,-8.762Zm-2,0l-0,8.762c-0,1.655 -1.344,3 -3,3c-0,-0 -83.276,-0 -83.276,-0c-1.655,-0 -3,-1.345 -3,-3l0,-8.762c0,-1.656 1.345,-3 3,-3c0,0 83.276,0 83.276,0c1.656,0 3,1.344 3,3Z" style="fill:#f1f1f1;"/><rect x="163.272" y="88.847" width="123.122" height="5.222" style="fill:#f1f1f1;"/><rect x="163.272" y="101.323" width="123.122" height="5.222" style="fill:#f1f1f1;"/><rect x="163.272" y="113.798" width="123.122" height="5.222" style="fill:#f1f1f1;"/><rect x="163.272" y="126.274" width="123.122" height="5.222" style="fill:#f1f1f1;"/><g><path d="M114.762,71.635l-51.667,-0c-3.567,0.004 -6.501,2.938 -6.505,6.505l-0,50.504c0.004,3.567 2.938,6.502 6.505,6.506l51.667,-0c3.567,-0.005 6.501,-2.939 6.504,-6.506l0,-50.504c-0.003,-3.567 -2.937,-6.501 -6.504,-6.505Zm-51.667,2.876l51.667,0c1.99,0.003 3.626,1.64 3.628,3.629l-0,28.918l-13.345,-12.922c-0.552,-0.535 -1.44,-0.537 -1.995,-0.005l-18.931,18.152l-6.286,-6.486c-0.527,-0.542 -1.395,-0.581 -1.969,-0.09l-16.398,14.076l0,-41.643c0.002,-1.99 1.639,-3.627 3.629,-3.629Zm-3.629,54.133l0,-5.07l17.245,-14.803l6.33,6.532l0.003,0.005l0.004,0.003l16.438,16.962l-36.391,0c-1.99,-0.002 -3.627,-1.639 -3.629,-3.629Zm55.296,3.629l-11.27,0l-17.371,-17.924l17.92,-17.183l14.349,13.896l-0,17.582c-0.002,1.99 -1.638,3.627 -3.628,3.629Z" style="fill:#f1f1f1;fill-rule:nonzero;"/><path d="M72.315,93.617c3.705,-0 6.754,-3.049 6.754,-6.755c-0,-3.705 -3.049,-6.754 -6.754,-6.754c-3.706,0 -6.755,3.049 -6.755,6.754c0.004,3.704 3.051,6.751 6.755,6.755Zm-0,-10.632c2.127,-0 3.877,1.75 3.877,3.877c0,2.128 -1.75,3.878 -3.877,3.878c-2.128,0 -3.878,-1.75 -3.878,-3.878c0.002,-2.126 1.751,-3.875 3.878,-3.877Z" style="fill:#f1f1f1;fill-rule:nonzero;"/></g></g></svg>