<?xml version="1.0" encoding="UTF-8" standalone="no"?><!DOCTYPE svg PUBLIC "-//W3C//DTD SVG 1.1//EN" "http://www.w3.org/Graphics/SVG/1.1/DTD/svg11.dtd"><svg width="100%" height="100%" viewBox="0 0 100 100" version="1.1" xmlns="http://www.w3.org/2000/svg" xmlns:xlink="http://www.w3.org/1999/xlink" xml:space="preserve" xmlns:serif="http://www.serif.com/" style="fill-rule:evenodd;clip-rule:evenodd;stroke-linejoin:round;stroke-miterlimit:2;"><g><path d="M47.033,77.112l-3.213,2.883c-1.212,1.088 -3.08,0.987 -4.168,-0.225c-1.088,-1.212 -0.987,-3.08 0.225,-4.168l7.954,-7.039c0.539,-0.575 1.366,-0.934 2.153,-0.934c0.788,0 1.585,0.334 2.185,0.934l7.954,7.039c1.212,1.088 1.313,2.956 0.225,4.168c-1.088,1.212 -2.956,1.313 -4.168,0.225l-3.213,-2.883l0,16.871c0,1.629 -1.322,2.951 -2.951,2.951l-0.016,0l-0.016,0c-1.629,0 -2.951,-1.322 -2.951,-2.951l-0,-16.871Z"/><path d="M77.11,52.969l2.883,3.213c1.088,1.212 0.988,3.08 -0.225,4.168c-1.212,1.088 -3.08,0.987 -4.168,-0.225l-7.039,-7.954c-0.574,-0.539 -0.934,-1.366 -0.934,-2.153c0,-0.788 0.334,-1.585 0.934,-2.185l7.039,-7.954c1.088,-1.212 2.956,-1.313 4.168,-0.225c1.213,1.088 1.313,2.956 0.225,4.168l-2.883,3.213l16.871,-0c1.629,-0 2.951,1.322 2.951,2.951l0,0.016l0,0.016c0,1.629 -1.322,2.951 -2.951,2.951l-16.871,0Z"/><path d="M52.967,22.892l3.213,-2.884c1.212,-1.088 3.08,-0.987 4.168,0.226c1.088,1.212 0.987,3.08 -0.225,4.168l-7.954,7.039c-0.539,0.574 -1.366,0.934 -2.153,0.934c-0.788,-0 -1.585,-0.334 -2.185,-0.934l-7.954,-7.039c-1.212,-1.088 -1.313,-2.956 -0.225,-4.168c1.088,-1.213 2.956,-1.314 4.168,-0.226l3.213,2.884l-0,-16.871c-0,-1.629 1.322,-2.952 2.951,-2.952l0.016,0.001l0.016,-0.001c1.629,0 2.951,1.323 2.951,2.952l0,16.871Z"/><path d="M22.89,47.035l-2.883,-3.213c-1.088,-1.212 -0.988,-3.08 0.225,-4.168c1.212,-1.088 3.08,-0.987 4.168,0.225l7.039,7.954c0.574,0.539 0.934,1.366 0.934,2.153c-0,0.788 -0.334,1.585 -0.934,2.185l-7.039,7.954c-1.088,1.212 -2.956,1.313 -4.168,0.225c-1.213,-1.088 -1.313,-2.956 -0.225,-4.168l2.883,-3.213l-16.871,0c-1.629,0 -2.951,-1.322 -2.951,-2.951l-0,-0.016l-0,-0.016c-0,-1.629 1.322,-2.951 2.951,-2.951l16.871,-0Z"/></g></svg>