<?xml version="1.0" encoding="UTF-8" standalone="no"?><!DOCTYPE svg PUBLIC "-//W3C//DTD SVG 1.1//EN" "http://www.w3.org/Graphics/SVG/1.1/DTD/svg11.dtd"><svg width="42" height="42" viewBox="0 0 100 100" version="1.1" xmlns="http://www.w3.org/2000/svg" xmlns:xlink="http://www.w3.org/1999/xlink" xml:space="preserve" xmlns:serif="http://www.serif.com/" style="fill-rule:evenodd;clip-rule:evenodd;stroke-linejoin:round;stroke-miterlimit:2;"><g><path d="M90.4,51c0,-1.1 -0.4,-2.1 -1.2,-2.8l-14.8,-14.9c-1.6,-1.6 -4.1,-1.6 -5.7,-0c-1.6,1.6 -1.6,4.1 0,5.7l8,8l-39.7,-0c-2.2,-0 -4,1.8 -4,4c0,2.2 1.8,4 4,4l39.8,-0l-8,8c-1.6,1.6 -1.6,4.1 -0,5.7c0.8,0.8 1.8,1.2 2.8,1.2c1,0 2,-0.4 2.8,-1.2l14.8,-14.8c0.8,-0.8 1.2,-1.8 1.2,-2.9Z" style="fill-rule:nonzero;"/><path d="M26.8,27l25.2,0c2.2,0 4,-1.8 4,-4c0,-2.2 -1.8,-4 -4,-4l-25.2,0c-8.1,0 -14.8,6.7 -14.8,14.8l0,34.3c0,8.2 6.7,14.9 14.8,14.9l25.2,0c2.2,0 4,-1.8 4,-4c0,-2.2 -1.8,-4 -4,-4l-25.2,0c-3.8,0 -6.8,-3.1 -6.8,-6.8l0,-34.4c0,-3.7 3.1,-6.8 6.8,-6.8Z" style="fill-rule:nonzero;"/></g></svg>