<?xml version="1.0" encoding="UTF-8" standalone="no"?><!DOCTYPE svg PUBLIC "-//W3C//DTD SVG 1.1//EN" "http://www.w3.org/Graphics/SVG/1.1/DTD/svg11.dtd"><svg width="100%" height="100%" viewBox="0 0 100 100" version="1.1" xmlns="http://www.w3.org/2000/svg" xmlns:xlink="http://www.w3.org/1999/xlink" xml:space="preserve" xmlns:serif="http://www.serif.com/" style="fill-rule:evenodd;clip-rule:evenodd;stroke-linejoin:round;stroke-miterlimit:2;"><rect id="card-payment-transfer" serif:id="card payment transfer" x="0" y="0" width="100" height="100" style="fill:none;"/><path d="M74.972,40.628l-62.472,0c-1.675,-0.078 -3.047,-1.437 -3.125,-3.122l-0,-6.259c0.031,-4.866 4.219,-9.266 9.256,-9.36c20.866,-0.128 41.731,0 62.597,0c4.869,0.029 9.269,4.216 9.363,9.254c0.078,12.537 -0,25.075 -0,37.612c-0.032,4.866 -4.219,9.266 -9.254,9.359c-20.868,0.129 -41.734,0.001 -62.6,0.001c-4.884,-0.032 -9.331,-4.26 -9.362,-9.36l-0,-18.753c0.091,-1.913 1.875,-3.419 3.859,-3.034c1.36,0.396 2.319,1.6 2.388,3.034c-0,6.272 -0.116,12.547 -0,18.819c0.05,1.587 1.437,2.997 3.047,3.047c20.872,0.387 41.756,0.387 62.628,-0c1.587,-0.05 2.997,-1.438 3.047,-3.047c0.231,-12.544 0.231,-25.094 -0,-37.638c-0.05,-1.587 -1.438,-2.997 -3.047,-3.047c-20.872,-0.387 -41.756,-0.387 -62.628,0c-1.61,0.05 -3.035,1.453 -3.047,3.135l-0,3.112l59.35,0c-0,0 1.591,0.191 2.362,1.078c1.513,1.747 0.313,5.041 -2.362,5.169Zm-7.872,14.506c1.144,-1.256 2.791,-2.047 4.625,-2.047c3.447,0 6.247,2.8 6.247,6.25c-0,3.447 -2.8,6.247 -6.247,6.247c-1.834,0 -3.481,-0.79 -4.625,-2.047c-1.144,1.257 -2.791,2.047 -4.622,2.047c-3.45,0 -6.247,-2.8 -6.247,-6.247c0,-3.45 2.797,-6.25 6.247,-6.25c1.831,0 3.478,0.791 4.622,2.047Z" style="fill:#fff;fill-rule:nonzero;"/></svg>