<?xml version="1.0" encoding="UTF-8" standalone="no"?><!DOCTYPE svg PUBLIC "-//W3C//DTD SVG 1.1//EN" "http://www.w3.org/Graphics/SVG/1.1/DTD/svg11.dtd"><svg width="100%" height="100%" viewBox="0 0 100 100" version="1.1" xmlns="http://www.w3.org/2000/svg" xmlns:xlink="http://www.w3.org/1999/xlink" xml:space="preserve" xmlns:serif="http://www.serif.com/" style="fill-rule:evenodd;clip-rule:evenodd;stroke-linejoin:round;stroke-miterlimit:2;"><g><path d="M50,0.554c27.29,-0 49.446,22.156 49.446,49.446c0,27.29 -22.156,49.446 -49.446,49.446c-27.29,0 -49.446,-22.156 -49.446,-49.446c-0,-27.29 22.156,-49.446 49.446,-49.446Zm20.92,28.425c-1.558,0.045 -3.038,0.696 -4.125,1.812c-9.362,9.382 -16.579,17.249 -25.156,26.032l-8.719,-7.375c-1.101,-0.991 -2.531,-1.539 -4.013,-1.539c-3.291,-0 -6,2.708 -6,6c-0,1.827 0.834,3.557 2.263,4.695l13,11c2.372,2.007 5.931,1.856 8.125,-0.344c10.791,-10.814 18.457,-19.434 29,-30c1.15,-1.128 1.798,-2.672 1.798,-4.283c0,-3.292 -2.709,-6.001 -6,-6.001c-0.058,0 -0.115,0.001 -0.173,0.003Z"/></g></svg>