<?xml version="1.0" encoding="UTF-8" standalone="no"?><!DOCTYPE svg PUBLIC "-//W3C//DTD SVG 1.1//EN" "http://www.w3.org/Graphics/SVG/1.1/DTD/svg11.dtd"><svg width="100%" height="100%" viewBox="0 0 100 100" version="1.1" xmlns="http://www.w3.org/2000/svg" xmlns:xlink="http://www.w3.org/1999/xlink" xml:space="preserve" xmlns:serif="http://www.serif.com/" style="fill-rule:evenodd;clip-rule:evenodd;stroke-linejoin:round;stroke-miterlimit:2;"><g><path d="M43.844,3c-1.309,-0.005 -2.545,1.101 -2.875,2.156l-2.625,9.188c-1.845,0.606 -3.613,1.32 -5.313,2.187l-8.344,-4.625c-1.132,-0.635 -2.677,-0.42 -3.593,0.5l-8.657,8.688c-0.906,0.912 -1.12,2.436 -0.5,3.562l4.625,8.375c-0.859,1.684 -1.585,3.455 -2.187,5.281l-9.188,2.625c-1.253,0.353 -2.195,1.604 -2.187,2.907l-0,12.312c0.006,1.292 0.944,2.525 2.187,2.875l9.157,2.594c0.604,1.84 1.354,3.616 2.218,5.312l-4.625,8.375c-0.62,1.127 -0.406,2.651 0.5,3.563l8.657,8.687c0.916,0.921 2.461,1.136 3.593,0.5l8.344,-4.625c1.701,0.869 3.467,1.613 5.313,2.219l2.625,9.156c0.35,1.244 1.583,2.182 2.875,2.188l12.312,-0c1.292,-0.01 2.525,-0.944 2.875,-2.188l2.625,-9.156c1.846,-0.606 3.612,-1.35 5.313,-2.219l8.343,4.625c1.133,0.636 2.678,0.421 3.594,-0.5l8.656,-8.687c0.907,-0.912 1.121,-2.436 0.5,-3.563l-4.625,-8.375c0.865,-1.696 1.615,-3.472 2.219,-5.312l9.156,-2.594c1.244,-0.35 2.182,-1.583 2.188,-2.875l-0,-12.312c0.008,-1.303 -0.934,-2.554 -2.188,-2.907l-9.187,-2.625c-0.602,-1.826 -1.328,-3.597 -2.188,-5.281l4.625,-8.375c0.621,-1.126 0.407,-2.65 -0.5,-3.562l-8.656,-8.688c-0.916,-0.92 -2.461,-1.135 -3.594,-0.5l-8.343,4.625c-1.7,-0.867 -3.468,-1.581 -5.313,-2.187l-2.625,-9.188c-0.361,-1.232 -1.59,-2.154 -2.875,-2.156l-12.312,0Zm2.25,6l7.812,0l2.406,8.469c0.275,0.995 1.099,1.819 2.094,2.094c2.527,0.696 4.91,1.69 7.156,2.968c0.887,0.511 2.04,0.523 2.938,0.031l7.75,-4.312l5.5,5.5l-4.313,7.719c-0.5,0.892 -0.5,2.045 0,2.937c1.279,2.247 2.304,4.661 3,7.188c0.27,0.987 1.079,1.809 2.063,2.093l8.5,2.407l-0,7.781l-8.5,2.437c-0.976,0.279 -1.784,1.087 -2.063,2.063c-0.696,2.527 -1.721,4.94 -3,7.187c-0.5,0.893 -0.5,2.046 0,2.938l4.313,7.75l-5.5,5.469l-7.75,-4.313c-0.898,-0.491 -2.051,-0.479 -2.938,0.031c-2.246,1.279 -4.629,2.304 -7.156,3c-0.988,0.269 -1.81,1.079 -2.094,2.063l-2.406,8.5l-7.812,-0l-2.407,-8.5c-0.283,-0.984 -1.105,-1.794 -2.093,-2.063c-2.527,-0.696 -4.91,-1.721 -7.157,-3c-0.886,-0.51 -2.039,-0.523 -2.937,-0.031l-7.75,4.313l-5.5,-5.469l4.312,-7.75c0.501,-0.892 0.501,-2.045 0,-2.938c-1.278,-2.246 -2.303,-4.66 -3,-7.187c-0.278,-0.976 -1.086,-1.784 -2.062,-2.063l-8.5,-2.437l-0,-7.781l8.5,-2.407c0.984,-0.284 1.793,-1.106 2.062,-2.093c0.697,-2.527 1.722,-4.941 3,-7.188c0.501,-0.892 0.501,-2.045 0,-2.937l-4.312,-7.719l5.5,-5.5l7.75,4.313c0.898,0.491 2.051,0.479 2.937,-0.032c2.247,-1.278 4.63,-2.272 7.157,-2.968c0.995,-0.275 1.819,-1.099 2.093,-2.094l2.407,-8.469Zm3.906,19c-12.115,-0 -22,9.885 -22,22c-0,12.115 9.885,22 22,22c12.115,0 22,-9.885 22,-22c-0,-12.115 -9.885,-22 -22,-22Zm-0,6c8.872,-0 16,7.128 16,16c-0,8.872 -7.128,16 -16,16c-8.872,-0 -16,-7.128 -16,-16c-0,-8.872 7.128,-16 16,-16Z" style="fill:#2d2d2d;fill-rule:nonzero;"/></g></svg>