<?xml version="1.0" encoding="UTF-8" standalone="no"?><!DOCTYPE svg PUBLIC "-//W3C//DTD SVG 1.1//EN" "http://www.w3.org/Graphics/SVG/1.1/DTD/svg11.dtd"><svg width="25" height="25" viewBox="0 0 100 100" version="1.1" xmlns="http://www.w3.org/2000/svg" xmlns:xlink="http://www.w3.org/1999/xlink" xml:space="preserve" xmlns:serif="http://www.serif.com/" style="fill-rule:evenodd;clip-rule:evenodd;stroke-linejoin:round;stroke-miterlimit:2;"><g><path d="M50,79.325c1.609,-0 2.932,-1.324 2.932,-2.933l0,-23.46c0,-1.608 -1.323,-2.932 -2.932,-2.932c-1.609,0 -2.932,1.324 -2.932,2.932l-0,23.46c-0,1.609 1.323,2.933 2.932,2.933Z" style="fill:#2d2d2d;fill-rule:nonzero;"/><path d="M61.73,79.325c1.609,-0 2.932,-1.324 2.932,-2.933l0,-23.46c0,-1.608 -1.323,-2.932 -2.932,-2.932c-1.609,0 -2.933,1.324 -2.933,2.932l0,23.46c0,1.609 1.324,2.933 2.933,2.933Z" style="fill:#2d2d2d;fill-rule:nonzero;"/><path d="M38.27,79.325c1.609,-0 2.933,-1.324 2.933,-2.933l-0,-23.46c-0,-1.608 -1.324,-2.932 -2.933,-2.932c-1.609,0 -2.932,1.324 -2.932,2.932l-0,23.46c-0,1.609 1.323,2.933 2.932,2.933Z" style="fill:#2d2d2d;fill-rule:nonzero;"/><path d="M79.325,14.81l-17.595,0l-0,-8.797c-0,-1.609 -1.324,-2.933 -2.933,-2.933l-17.594,0c-1.609,0 -2.933,1.324 -2.933,2.933l0,8.797l-17.595,0c-4.824,0.005 -8.793,3.973 -8.797,8.798l-0,5.865c0.006,3.714 2.363,7.044 5.865,8.284l-0,50.365c0.004,4.825 3.973,8.793 8.797,8.798l46.92,-0c4.824,-0.005 8.793,-3.973 8.797,-8.798l0,-50.365c3.502,-1.24 5.859,-4.57 5.865,-8.284l0,-5.865c-0.004,-4.825 -3.973,-8.793 -8.797,-8.798Zm-35.19,-5.865l11.73,0l-0,5.865l-11.73,0l0,-5.865Zm32.257,79.177c0,1.609 -1.323,2.933 -2.932,2.933l-46.92,-0c-1.609,-0 -2.932,-1.324 -2.932,-2.933l-0,-49.852l52.784,0l0,49.852Zm5.865,-58.649c0,1.608 -1.323,2.932 -2.932,2.932l-58.65,0c-1.609,0 -2.932,-1.324 -2.932,-2.932l-0,-5.865c-0,-1.609 1.323,-2.933 2.932,-2.933l58.65,0c1.609,0 2.932,1.324 2.932,2.933l0,5.865Z" /></g></svg>