<?xml version="1.0" encoding="UTF-8" standalone="no"?><!DOCTYPE svg PUBLIC "-//W3C//DTD SVG 1.1//EN" "http://www.w3.org/Graphics/SVG/1.1/DTD/svg11.dtd"><svg width="100%" height="100%" viewBox="0 0 100 100" version="1.1" xmlns="http://www.w3.org/2000/svg" xmlns:xlink="http://www.w3.org/1999/xlink" xml:space="preserve" xmlns:serif="http://www.serif.com/" style="fill-rule:evenodd;clip-rule:evenodd;stroke-linejoin:round;stroke-miterlimit:2;"><path d="M50,46.667c-9.143,-0 -16.667,-7.524 -16.667,-16.667c0,-9.143 7.524,-16.667 16.667,-16.667c9.143,0 16.667,7.524 16.667,16.667c-0,9.143 -7.524,16.667 -16.667,16.667Zm0,-26.667c-5.486,0 -10,4.514 -10,10c0,5.486 4.514,10 10,10c5.486,0 10,-4.514 10,-10c0,-5.486 -4.514,-10 -10,-10Z" style="fill-rule:nonzero;"/><path d="M80,83.333l-60,0c-1.829,0 -3.333,-1.504 -3.333,-3.333l-0,-6.667c-0,-10.971 9.028,-20 20,-20l26.666,0c10.972,0 20,9.029 20,20l0,6.667c0,1.829 -1.504,3.333 -3.333,3.333Zm-56.667,-6.666l53.334,-0l-0,-3.334c-0,-7.314 -6.019,-13.333 -13.334,-13.333l-26.666,0c-7.315,0 -13.334,6.019 -13.334,13.333l0,3.334Z" style="fill-rule:nonzero;"/></svg>