<?xml version="1.0" encoding="UTF-8" standalone="no"?><!DOCTYPE svg PUBLIC "-//W3C//DTD SVG 1.1//EN" "http://www.w3.org/Graphics/SVG/1.1/DTD/svg11.dtd"><svg width="100%" height="100%" viewBox="0 0 168 236" version="1.1" xmlns="http://www.w3.org/2000/svg" xmlns:xlink="http://www.w3.org/1999/xlink" xml:space="preserve" xmlns:serif="http://www.serif.com/" style="fill-rule:evenodd;clip-rule:evenodd;stroke-linejoin:round;stroke-miterlimit:2;"><g id="vertical---hover" serif:id="vertical + hover"><path d="M167.833,10c0,-5.519 -4.481,-10 -10,-10l-147.833,0c-5.519,0 -10,4.481 -10,10l0,215.535c0,5.519 4.481,10 10,10l147.833,-0c5.519,-0 10,-4.481 10,-10l0,-215.535Z" style="fill:#fff;"/><path d="M167.833,10c0,-5.519 -4.481,-10 -10,-10l-147.833,0c-5.519,0 -10,4.481 -10,10l0,215.535c0,5.519 4.481,10 10,10l147.833,-0c5.519,-0 10,-4.481 10,-10l0,-215.535Zm-2,-0l0,215.535c0,4.415 -3.584,8 -8,8l-147.833,-0c-4.415,-0 -8,-3.585 -8,-8c0,-0 0,-215.535 0,-215.535c0,-4.415 3.585,-8 8,-8l147.833,0c4.416,0 8,3.585 8,8Z" style="fill:#f1f1f1;"/><path d="M153.43,17.729c-0,-1.103 -0.897,-2 -2,-2l-137.715,0c-1.104,0 -2,0.897 -2,2l0,21.81c0,1.104 0.896,2 2,2l137.715,-0c1.103,-0 2,-0.896 2,-2l-0,-21.81Z" style="fill:#f1f1f1;"/><rect x="12.833" y="127" width="139.667" height="14.795" style="fill:#f1f1f1;"/><path d="M106.109,201.773c-0,-2.759 -2.24,-5 -5,-5l-83.276,0c-2.759,0 -5,2.241 -5,5l0,8.762c0,2.76 2.241,5 5,5l83.276,-0c2.76,-0 5,-2.24 5,-5l-0,-8.762Zm-2,0l-0,8.762c-0,1.656 -1.344,3 -3,3c-0,-0 -83.276,-0 -83.276,-0c-1.655,-0 -3,-1.344 -3,-3c0,-0 0,-8.762 0,-8.762c0,-1.655 1.345,-3 3,-3l83.276,0c1.656,0 3,1.345 3,3Z" style="fill:#f1f1f1;"/><rect x="12.833" y="148.408" width="139.667" height="4.761" style="fill:#f1f1f1;"/><rect x="12.833" y="159.781" width="139.667" height="4.761" style="fill:#f1f1f1;"/><rect x="12.833" y="171.155" width="139.667" height="4.761" style="fill:#f1f1f1;"/><rect x="12.833" y="182.528" width="139.667" height="4.761" style="fill:#f1f1f1;"/><g><path d="M108.406,54.253l-51.666,-0c-3.567,0.004 -6.502,2.938 -6.506,6.505l0,50.504c0.004,3.567 2.939,6.501 6.506,6.505l51.666,0c3.567,-0.004 6.501,-2.938 6.505,-6.505l-0,-50.504c-0.004,-3.567 -2.938,-6.501 -6.505,-6.505Zm-51.666,2.876l51.666,0c1.99,0.003 3.626,1.64 3.628,3.629l0,28.918l-13.344,-12.922c-0.552,-0.535 -1.441,-0.538 -1.996,-0.005l-18.93,18.152l-6.287,-6.486c-0.527,-0.542 -1.394,-0.581 -1.969,-0.09l-16.397,14.076l-0,-41.643c0.002,-1.99 1.639,-3.627 3.629,-3.629Zm-3.629,54.133l-0,-5.07l17.244,-14.803l6.33,6.532l0.003,0.005l0.005,0.003l16.437,16.962l-36.39,0c-1.99,-0.002 -3.627,-1.639 -3.629,-3.629Zm55.295,3.629l-11.27,0l-17.37,-17.924l17.92,-17.183l14.348,13.896l0,17.582c-0.002,1.989 -1.638,3.626 -3.628,3.629Z" style="fill:#f1f1f1;fill-rule:nonzero;"/><path d="M65.959,76.235c3.705,-0 6.754,-3.049 6.754,-6.755c0,-3.705 -3.049,-6.754 -6.754,-6.754c-3.705,-0 -6.754,3.049 -6.754,6.754c0.004,3.704 3.05,6.75 6.754,6.755Zm0,-10.633c2.127,0 3.878,1.751 3.878,3.878c-0,2.128 -1.751,3.878 -3.878,3.878c-2.127,0 -3.878,-1.75 -3.878,-3.878c0.003,-2.126 1.752,-3.875 3.878,-3.878Z" style="fill:#f1f1f1;fill-rule:nonzero;"/></g></g></svg>